<?xml version="1.0" standalone="no"?>
<!DOCTYPE svg PUBLIC "-//W3C//DTD SVG 20010904//EN"
 "http://www.w3.org/TR/2001/REC-SVG-20010904/DTD/svg10.dtd">
<svg version="1.0" xmlns="http://www.w3.org/2000/svg"
 width="200.000000pt" height="200.000000pt" viewBox="0 0 200.000000 200.000000"
 preserveAspectRatio="xMidYMid meet">
<metadata>
Created by potrace 1.10, written by Peter Selinger 2001-2011
</metadata>
<g transform="translate(0.000000,200.000000) scale(0.100000,-0.100000)"
fill="#000000" stroke="none">
<path d="M779 1715 l-266 -175 53 -193 c29 -105 53 -197 54 -203 0 -7 -19 -7
-62 2 -35 8 -68 14 -74 14 -5 0 -32 -63 -58 -139 l-48 -140 33 -48 c18 -26 74
-105 125 -174 l91 -126 -38 -64 c-22 -35 -39 -67 -39 -71 0 -4 22 -33 48 -65
40 -48 47 -62 41 -83 -16 -55 -14 -57 74 -70 54 -8 89 -19 104 -32 21 -19 25
-20 129 -6 100 14 113 13 190 -4 l82 -19 61 30 c58 30 61 34 76 86 16 52 19
56 88 94 64 35 76 47 106 101 18 34 31 63 29 66 -3 2 -41 17 -84 33 -43 17
-78 33 -77 38 1 4 45 148 98 320 l96 312 -35 108 c-61 188 -48 169 -147 219
-89 44 -89 44 -89 83 0 37 -5 43 -142 160 -78 66 -144 121 -147 121 -3 0 -126
-79 -272 -175z m309 -52 c23 -109 42 -203 42 -210 0 -6 -19 -18 -42 -25 l-43
-15 -5 -201 -5 -202 -85 -54 c-47 -30 -86 -54 -87 -53 -1 1 -18 160 -37 352
-20 193 -37 358 -39 367 -1 11 43 57 123 127 69 60 128 110 131 110 3 1 24
-88 47 -196z m130 63 c89 -77 102 -92 102 -120 0 -31 -1 -32 -90 -55 -50 -13
-92 -22 -94 -20 -1 2 -15 65 -30 139 -15 74 -30 146 -33 159 l-6 25 24 -20
c14 -10 71 -59 127 -108z m-338 21 c-19 -17 -54 -48 -76 -67 l-42 -35 39 -355
c40 -364 42 -411 23 -417 -7 -2 -40 21 -75 51 l-63 55 -74 277 c-61 225 -72
278 -61 285 8 4 91 59 184 123 94 63 172 115 175 115 3 0 -11 -14 -30 -32z
m422 -279 c-8 -46 -16 -84 -18 -86 -3 -4 -152 18 -174 26 -10 3 -7 7 10 12 22
5 25 12 24 47 l-1 41 71 20 c111 31 105 35 88 -60z m123 38 l79 -44 42 -124
41 -124 -106 24 c-111 24 -119 29 -156 98 -16 31 -17 40 -4 124 7 49 15 90 18
90 3 0 42 -20 86 -44z m-105 -199 c16 -26 30 -52 30 -57 0 -9 -105 -376 -117
-410 -4 -11 -8 -9 -16 10 -52 124 -52 124 -105 145 l-52 19 0 191 0 191 115
-20 115 -21 30 -48z m148 -87 c46 -11 92 -20 104 -20 13 0 18 -5 15 -14 -5
-13 -57 -179 -151 -486 l-41 -134 -60 -13 c-100 -20 -96 -24 -71 60 l23 72
-24 53 -23 52 46 158 c25 86 54 187 65 225 11 37 23 67 27 67 4 0 44 -9 90
-20z m-870 -188 c59 -53 129 -116 157 -139 27 -23 47 -44 45 -45 -3 -2 -22
-16 -42 -31 -32 -23 -46 -27 -108 -27 -67 0 -79 4 -161 48 -49 26 -87 52 -85
57 2 6 21 61 42 122 22 62 40 113 42 113 2 0 52 -44 110 -98z m24 82 c8 -5 41
-104 36 -109 -2 -2 -34 26 -71 62 l-67 65 47 -7 c27 -4 51 -9 55 -11z m488
-217 c-33 -52 -59 -75 -181 -161 l-142 -101 -63 15 c-35 8 -64 18 -64 22 0 4
16 28 35 54 40 52 139 132 269 215 l89 57 47 -20 48 -20 -38 -61z m105 -94
l48 -123 -33 -122 c-33 -121 -50 -163 -50 -121 0 20 -75 348 -86 377 -6 15 58
128 67 118 3 -4 28 -62 54 -129z m-709 4 c73 -39 140 -111 129 -139 -3 -7 6
-48 19 -90 13 -43 23 -78 21 -78 -2 0 -44 59 -95 130 -50 72 -107 151 -126
176 -20 26 -32 45 -27 43 4 -2 40 -21 79 -42z m617 -195 c25 -108 48 -204 51
-212 5 -13 -15 -15 -142 -15 l-149 0 -41 117 -41 117 132 95 c73 53 135 95
138 96 3 0 26 -89 52 -198z m-423 155 c0 -2 -11 -17 -24 -35 -21 -30 -24 -31
-37 -14 -45 54 -46 52 10 52 28 0 51 -1 51 -3z m32 -138 c42 -10 49 -15 62
-53 9 -22 27 -72 41 -110 14 -37 25 -70 25 -71 0 -4 -139 51 -146 57 -3 4 -18
50 -34 103 -24 82 -26 95 -12 91 10 -3 38 -10 64 -17z m653 -121 c-4 -18 -8
-34 -10 -36 -1 -1 -26 9 -56 22 -55 25 -54 31 6 39 69 9 67 10 60 -25z m103 5
c24 -8 42 -17 40 -18 -2 -2 -31 -10 -66 -18 l-62 -14 0 23 c0 37 11 56 29 49
9 -4 35 -14 59 -22z m-827 -25 c28 -34 24 -41 -31 -59 -28 -9 -49 -13 -48 -10
9 20 54 91 56 91 2 0 12 -10 23 -22z m638 -6 l61 -28 -77 -32 c-42 -17 -78
-30 -79 -29 -3 2 29 117 32 117 1 0 29 -13 63 -28z m230 -49 c-12 -21 -23 -39
-25 -41 -1 -2 -22 10 -48 26 l-45 29 67 15 c37 8 69 13 71 12 2 -2 -7 -20 -20
-41z m-164 -61 l-7 -60 -73 31 -74 30 77 32 c42 17 79 30 81 29 2 -2 0 -30 -4
-62z m115 6 c0 -8 -91 -60 -97 -55 -2 2 -1 29 3 59 l6 56 44 -27 c24 -14 44
-29 44 -33z m-795 35 c-3 -10 -11 -37 -18 -60 -6 -24 -14 -43 -17 -43 -8 0
-73 80 -69 84 5 4 91 33 103 35 4 0 5 -7 1 -16z m163 -34 c7 -2 -35 -39 -94
-82 -64 -47 -104 -71 -100 -60 2 10 14 52 26 93 12 41 23 81 25 88 3 9 20 6
67 -11 35 -13 69 -26 76 -28z m281 -13 c-6 -6 -182 -76 -183 -73 -1 1 -11 16
-24 34 -12 18 -22 35 -22 38 0 3 53 5 117 5 64 0 114 -2 112 -4z m-20 -95
l-60 -89 -44 47 -45 46 27 10 c15 6 59 24 98 41 38 18 73 32 77 33 4 1 -20
-39 -53 -88z m-262 52 c-8 -16 -22 -52 -32 -81 l-17 -53 -67 7 c-36 3 -67 7
-68 8 -2 2 190 145 195 146 1 0 -4 -12 -11 -27z m62 -8 c13 -20 22 -37 20 -38
-62 -45 -110 -77 -108 -70 2 4 15 39 29 76 14 37 27 67 30 67 3 0 16 -16 29
-35z m296 -154 c4 -17 2 -22 -7 -18 -8 2 -40 10 -71 17 -56 11 -58 12 -44 33
8 12 34 54 58 92 l44 70 7 -85 c4 -47 10 -96 13 -109z m82 162 c32 -15 59 -28
61 -29 2 -1 -2 -22 -8 -45 l-12 -44 -24 30 c-42 52 -85 115 -80 115 3 0 32
-12 63 -27z m-23 -66 c27 -38 46 -70 44 -71 -9 -8 -68 -36 -76 -36 -5 0 -12
32 -16 72 -3 39 -9 83 -13 97 -7 33 0 25 61 -62z m-271 -43 l37 -42 -57 -6
c-32 -4 -71 -9 -87 -12 l-28 -6 42 56 c24 31 46 55 50 54 3 -2 23 -22 43 -44z
m-120 -19 c-26 -32 -53 -46 -53 -27 0 9 62 61 73 62 4 0 -5 -16 -20 -35z"/>
</g>
</svg>
