<?xml version="1.0" encoding="UTF-8"?>
<svg id="Layer_2" data-name="Layer 2" xmlns="http://www.w3.org/2000/svg" viewBox="0 0 1041 736">
  <g id="Layer_1-2" data-name="Layer 1">
    <g>
      <path d="M292,176c.12-.96-.18-2.13,0-3-2.01-.13-3.53.9-2.99-1.98,4.15-1.54,6.13-5.26,11.35-4.02.71.17.28,3.03,4.01,2.04.92-.24,3.93-7.59,7.63-6.03,1.07,1-6.54,8.52-7.69,8.86-3.81,1.13-4.56-2.93-6.81-2.92-.84,0-5.32,3.17-5.5,4.06.95.06,3.03-.44,3.01.51-.05,1.8-1.4,2.77-3.01,2.49,2.25,2.25,9.29,11.25,11,14-.25-3.46,4.14-3.18,6.41-3.86l2.57,3.37c-1.87,2.86-2.39-.45-4.43-.46-1.38,0-2.92,1.33-4.55.96,3.1,4.99,6.83,14.28,8.5,20,6.2,21.33,2.97,44.7-8.37,63.67-.25,2.41,3.69,3.29,4.95,4.77,2.85,3.35-2.94,8.78-4.07,7.56,2.06-5.96-.22-7.64-5.09-10.61,1.23-5.99,7.96-10.61,5.08-17.39l3.06-.63c9.23-30.06.34-63.77-24.03-83.89-1.45-1.2-5.92-4.58-7.48-4.54-.58.01-.45,1.26-.9,1.67-.58.54-1.56.3-1.64.39-.14.16.26,1.9-.49,2.03l-2.5-.03v-2.99s3,1,3,1l-.61-5.09c-5.99-2.08-12.94-6.75-19.26-7.37-2.01-.2-4.12,1.21-6.17,0-3.19-1.89-.2-5.1,4.3-4.32,12.21,2.1,31.96,13.02,40.74,21.79Z"/>
      <path d="M233.04,313.04c0,1.92-.45,3.78-.92,5.63-.44,1.75.75,2.8-2.11,2.33l1-7.99c-16.07-.35-32.27-6.65-44.5-16.98-2.12,2.5-7.41,6.02-7.41,9.44,0,1.37,1.79,3.53.41,4.53-4.67-4.21-3.64-7.63-.03-12.02,7.87-9.56,10.38-3.04,17.85,1.2,23.43,13.3,51.41,14.17,74.99.63,2.87-1.65,12.08-9.35,13.37-9.7,4.38-1.19,7.83,8.56,2.82,10.88-2.79-1.21,1-6.79-1.99-6.96-.97-.06-13.16,9.3-16.18,10.81-10.98,5.51-25.07,8.39-37.29,8.21Z"/>
      <path d="M575.02,398l1.99-.5,1.03-8.46,7.96,1.98-7,11.47c.47,2.1,18.51,7.06,21,9.02.69.54,1.14,1,1.02,1.96-.77,2.87-1.54,5.31-5.06,4.13-4.87-1.63-12.58-8.86-17.46-11.58l-3.45,11.56c-1.74,1.33-7.09-2.9-6.91-4.9s4.99-5.65,3.86-6.67c-7.98.79-18.79-1.85-19.06-11.54-.35-12.91,20.11-5.13,22.08,3.53ZM563,390.01c-5.57-.74-8.03,1.7-6.79,7.28.37,1.66,2.23,5,3.79,3.22-2.35-2.08-4.77-6.34-1.41-8.42,1.53-.94,4.33-.36,4.41-2.07ZM575,403c.41-1.86-1.02-2.37-2-3.49-3.09-3.54-9.51-9.43-13.56-4.51-1.16,5.24,14.01,9.39,15.55,8.01ZM574.01,407.01c-.16,2.36-5.64,5.99-1.5,7.99,1.87.9,2.3-3.87,2.39-4.6.14-1.08.87-3.63-.89-3.39ZM580,392l.49,3.99c1.54-1.08,1.74-2.14,1.5-3.99h-1.99ZM597.99,416c.88-4.3-4.03-4.79-6.99-4.99l6.99,4.99Z"/>
      <path d="M191,153.01c3.75,1.19,5.55.32,8.99-1.05l-2.54-10,10-3.02,5.6,17.04,10.96-2.01v-2.98c-3.84,2.2-6.48-4.15-10.99-4l4.94-3.61-2.44-10.38c2.19,3.74,5.84,9.69,2.59,13.51l4.91,4.48-4.03-21.96-6.96-.04c-.5-2.83.64-1.65,2.21-2.23,1.38-.51,4.72-2.1,5.81-1.34l7.97,29.17-.45,1.44c-2.83.97-1.83,1.26-2.52,3.47l-1.95.41-.26-1.66-11.87,1.32-4.95-17.57-6.02,1.52c-.01,6.25,6.07,7.5,6.86,10.16,1.65,5.59-5.27,3.62-8.83,4.32l4.69-2.71,2.3.71-1.49-3.98c-2.48,2.91-6.38,3.28-9.9,4l-.61,1.98h3.01s-.49,1.85-.49,1.85l-1.52-.34,2.02,6.49c3.87-3.86,8.46-9.72,13.99-4.01-2.38-.02-4.75-.21-7.09.45-3.01.85-2.76,6.23-8.26,4.43-1.62-.53-3.98-7.1-4.27-8.86-.37-2.2,1.8-3.08.62-5Z"/>
      <path d="M114.07,226.07l14.93-2.08v5s-2.64-3.09-2.64-3.09l-9.36,1.09,5.01,24,7.99-2.01c-.76-3.46-7.18-1.33-8-2,2.78-4.29,10.18-2.06,14-5.5-3.96-.71-6.99,2.36-11,.5-.6-5.65,6.75-3.85,4.01-9.99,3.42-.21,3.37,3.59,3.47,6l1.08.93c9.74-2.05,19.54-5.25,29.44-5.93.24,1.56-1.84,1.11-3.02,1.46-4.33,1.27-18.93,3.83-21.35,5.44-1.04.69-.68,3.09-2.02,4.19-2.04,1.68-6.87-.3-6.6,3.89l29.99-8,3.92,20.93-13.31,3.9c-2.39-.47-2.69-6.14-6.61-4.81l.89,6.9-5.89,2.1c-.73-2.79,2.27-2.47,4-3.01l-1.94-6.41c.34-1.56,6.8-3.27,7.86-2.51l1.08,4.93,9.98-2.02-3.03-16.96-35.49,10.77c-1.12-.09-1.85-2.52-2.21-3.56-.92-2.69-5.9-23.15-5.19-24.16Z"/>
      <path d="M168.87,269.12l7.12,11.87c-2.14-.05-9.23,7.08-8.94,8.39l5.31,4.56c6.22-4.4-1.29-3.29-.37-7.93l5.44.92,3.56-2.92c.62,2.17-1.98,2.72-2.47,3.95-.37.94.57,2.28.31,3.34-.39,1.57-6.97,6.46-9.21,5.77-.93-2.86-5.2-5.17-6.18-7.06-1.72-3.33,7.68-7.03,7.61-9.48-.03-.9-4.21-8.49-6.1-8.13l-44.42,32.67c-3.29,3.52,2.07,6.84,3.06,9.91,1.55,4.86-4.76,8.52-8.59,10.02.08-4.01,6.5-4.61,6.84-8.67.21-2.52-6.37-6.46-2.9-11.89l45.69-34.3,4.23-1.03Z"/>
      <path d="M380.1,443.37c-.42-1.28,2.28-17.48,2.95-19.82.91-3.17,2.02-2.94,4.99-2.09,3.64,1.04,12.97,5.27,16.97,7.04,1.15.51,2.21.93,2.98,2-2.68,1.57-4.65,4.08-7.06,5.92-2.99,2.28-18.81,13.12-20.83,6.94ZM386.01,425l-3,17c2.81.41,1.85-.5,1.99-2.49.84-11.8.81-12.1,13-8.5.54,2.92-3.31,2.69-4,4.98l8-4.5-15.99-6.5ZM388.02,432l-1.01,7.99h2.99c-1.15-4.21-.87-4.86,2-7.99h-3.98Z"/>
      <path d="M671,154c3.35-.39,1.67,3.32,5.54,4.01s1.21-2.74,4.46-2.02c-1.16,4.01,3.27,5.68,3.86,8.73s-1.52,4.33-1.54,5.78,2.22,2.66,1.68,4.49l-4.48-2-1.53,5.01c-2.39-1.24-1.32-3.99-4.94-2.97-.05,1.95-.44,4.35-3.05,3.97l.56-6.01-5.58-2.01c.9-2.41.53-3.04-.99-4.96,1.48-.11,3.19-.76,3.05-2.5l-3.03-5.02c2.16-3.37,3.12,1.88,5.47,1.5,2.53-.41-.27-5.07.52-5.99ZM681.99,166c-3.73,2.08-8.46-.21-11.99,2.5,3.03,4.61,4.41.76,7.56.51,2.39-.19,4.71,2.6,4.43-3.01ZM678,160.01l-5.99,1v.98c2.22.06,5.21.58,5.99-1.98ZM681,162l-4.99,2.01v.98c2.63.31,5.28-.02,4.99-2.99Z"/>
      <path d="M109,407c1.26,1.34-5.27,10.34-7.99,10.01v1.97s3.53,2.93,3.53,2.93l-1.55,6.09-2-5-7.85,9.51c0,.69,2.39,1.85,2.75,3.18.64,2.41-5.43,11.94-6.88,10.3l2.99-9.99-4.98,3c.09-2.57-3.62-3.64-2.92-6.32,1.1-4.2,5.27-.77,7.47-2.59.48-.4,4.85-7.42,5.05-8.07.75-2.49-1.45-4.39.92-6.99,1.64-1.79,3.89-1.47,5.42-2.58,1.93-1.4,2.65-5.77,6.05-5.44Z"/>
      <path d="M123,379.01l-.85,2.89,1.85.6c-2.77,1.91-.32,5.4-1.99,8.5,4.38.69,7.6-2.65,7.01-6.99,8.62,6.7-3.04,8.2-6,10.55-1.21.96-.49,3.16-2.38,2.34-.84-.36-1.49-1.58-2.3-1.77-1.26-.29-3.21,2.72-5.32,1.87-.69-.71,1.3-6.74-.99-6.99.13,4.73-6.67,8.44-4.22,2.29,2.69-6.74,8.2-11.4,15.21-13.29Z"/>
      <path d="M129.9,156.11l-.9,6.89,6.05.46c.36,4.21,5,5.71,8.87,5.46.88-.62,0-4.97,3.08-3.91l-1.81,7.38,5.32,4.6,3.56-6.93c2.19-1.54,8.45,4.91,11.37,4.98l1.63-3.43-3.96-3.24,1.46-4.39c-5.42-4.58-12.93-8.33-18.05-13-1.22-1.11-2.85-2.05-2.51-3.98l23.79,17.49-1.76,3.9,4.96,4.6c-3.13.03-3.64,3.26-5.56,5.01l-8.85-4.94-4.59,7.4c.29,1.35,16.16,8.72,18.69,10.35,1.34.86,2.71,1.16,2.3,3.19l-25-12.01,2-4.98c-2.28.96-5.79-2.76-6.5-2.76-.8,0-2.42,2.41-4,2.42-1.42,0-4.78-2.66-6.49-3.18-2.12-2.03-.6-1.71,1.11-1.11,2.99,1.04,7.42,3.79,7.88-1.37-3.28.22-11.79-6.59-13.5-6.69-1.54-.1-4.99,3.54-7.5,2.68l4.86-4.48c-4.01-3.77-1.02-9.14,4.04-6.4Z"/>
      <path d="M668,514c-10.34,10.81-11.29-3.59-11-12l-7.31,1.87c-2.67-.67-2.92-4.84-3.92-5.64-.74-.6-2.84-.5-4.14-1.35-3.9-2.55-7.77-7.25-12.6-8.46-1.7-.42-2.18,2.98-4.02.08.71-1.65,2.37-.53,2.75-.86.29-.24.14-1.52.85-1.68,3.99-.89,8.79,4.84,12.05,6.88,2.05,1.28,5.6,1.94,6.9,3.1,1.53,1.35,1.18,3.81,2.9,4.97l9.52-2.9,1.01,17c.32.41,6.48-5.64,8.48-6.01,3.64-.68-.53,4.02-1.49,5.01h3s0,2,0,2h-2.99s0-2,0-2Z"/>
      <path d="M180.02,135c4.25.23.87-2.14.14-3.65-2.37-4.91-7.48-12.18-5.22-16.93l-1.89-.44-.03-1.96c3.25-.81,5.21-3.82,8.99-3.01.49,2.46-1.93,2.36-3.02,3.74-3.19,4.05-4.54,8.78,2.03,9.28-1.4,2.73.15,7.79,2.26,9.7,1.54,1.4,4.5.29,3.73,3.26-8.7,4.77-10.46-.34-13.01-7.98l-1,3.99c-.25.3-1.2-.51-1.49-1-1.23-2.02-5.69-9.9-5.56-11.5.08-.93.95-2.45,1.55-2.48,3.16-.19,11.12,15.6,12.52,18.98Z"/>
      <path d="M77,341c1.01,1.13,7.9-7.38,9.87-1.35l-1.86,6.32c1.95.01,4.36.43,3.98,3.03h-5s1,3,1,3c-2.68.8-3.16-3.68-4.55-3.99l-4.93,2c-2.5-.66-1.27-7.76-1.52-9.99-1.05-1.2-6.69,6.06-6.01,1.49.26-1.74,4.07-9.16,5.54-9.48,3.08-.68,4.03,6.95,3.48,8.98Z"/>
      <path d="M376.02,406l5.98-1.99c-.29,3.53-3.81,5.53-7,5,2.9,5.61,4.57,1.34,7.69.18,5.11-1.89.1,4.91-2.39,5.65-1.89.56-3.89.02-5.62-.79-6.77-8.56-12.41-17.83-20.68-25.05,1.83-.39,2.76.55,4.14,1.35,3.26,1.9,4.71,6.2,7.54,2.78l1.31.29,9.02,12.57ZM371.99,405c-.35-2.2-2.4-4.99-3.77-6.72-.95-1.2-1.13-2.73-3.22-2.27-.41.4,5.45,8.62,6.99,8.99Z"/>
      <path d="M314.01,456l3.19,5.3c1.43,4.09,2.47,9.68,4.59,13.41s3.08,2.62,5.09-.41c.91-3.53-10.21-21.07-9.96-24.78.21-3.09,4.3-3.58,6.06-1.02-3.25,2.05-.14,10.24,1.57,12.45.85,1.1,3.07,1.46,3.3,2.64.16.84-.81,2.28-.66,3.68.21,2.01,2.18,4.34,1.82,6.74l3.97.49c-1.54,2.13-9.87,6.81-11.88,5.39l-7.1-23.88Z"/>
      <path d="M28.01,392c3.76-.82.55,4.02,2,6,.63.76,9.96-8.2,8.55-10.98-.91-1.79-4.56-2.74-3.56-6.01,1.32.12,2.43-.24,3.53-.96.55-.36,8.51-7.57,8.94-8.08,1.33-1.59,1.26-4.62,2.52-5.48.93-.63,2.73-.42,3.97-1.03.34-.16,5.24-4.75,5.03-.96-.08,1.42-17.26,16.15-19.98,18.06-.29,1.25,2.12,2.97,2.6,4.42,1.36,4.1-10.64,16.04-13.57,14-1.31-3.25-1.24-5.72-.02-8.97Z"/>
      <path d="M97,354c3.2-.58,4.47,2.18,6.5,3.98,2.27-.99,5.82-7.42,7.03-7.96.92-.41,3.39-.22,2.47,1.46-.61,1.1-2.93,1.77-4,3-3.35,3.86-4.32,5.33-3,10.51l-2.01-3h-1.47c-1.87,2.76-5.49,4.36-7.52,6.49-1.83,1.92-7.51,11.93-9.48,11.5l-1.41-2.93,1.9-.56-3-4.99c2.32-3.55,5.67,1.01,8.08-1.98,2.12-2.63-2.78-6.9.43-7.54,1.84-.36,4.7,6.42,8.02-.01,1.83-3.54-3.42-4.2-2.52-7.99Z"/>
      <path d="M109.99,258c1.04,1.3-3.37,8.31,1,10.51,4.86,2.44,8.45-2.32,6.01-6.5,4.06-.68,5.71,3.67,4.58,7.03-5.58,16.51-30.73-.31-11.59-11.03ZM107.01,269c-.29,2.48,1.59,3.36,3.99,2.99v-.98s-3.99-2.01-3.99-2.01Z"/>
      <path d="M283.99,409.01c.46-4.14,1.36-6.28,6.01-6,2.1,4.84-3.65,6.31-3.96,7.58s1.93,3.08,1.92,4.91c-.02,2.99-3.32,8.54-6.66,9.29-15.46,3.48-12.23-22.83,2.69-15.78ZM274.23,417.36c.86,7.62,11.31,5.27,10.64-2.66-1.58-2.75-3.93-4.53-7.19-3.54-1.91.57-3.66,4.35-3.45,6.2Z"/>
      <path d="M203.71,349.21c-.29-.45-2.64.06-1.72-3.2,3.34.04,7.13-.62,10,1.49l-4.94,1.56-1.16,7.84c-2.93.16-5.97-.03-7.78,2.71-3.12,4.74.74,4.31.91,5.01.89,3.72-2.04,5.12-2.06,6.88,4.55,1.35.78,6.14-2.97,5.5l1-3.99-3.99-1.49c5.63-3.51,2.93-9,4.43-13.57s10.7-4.95,8.28-8.73Z"/>
      <path d="M598.99,508c3.14.34,5.67-.55,6.02-4h1.48c1.76,5.17,5.49,1.3,8.49,4.5-3.6,2.2-1.82,4.89-2.24,6.86-.34,1.59-4.1,3.85-3.81,6.59-2.72,1.36-3.11-1.99-3.44-2-1.51-.05-6.34,4.68-6.47,1.56-.03-.61,2.24-4.15,2.07-7.03-.15-2.6-2.5-3.81-2.1-6.48ZM605.05,510.02c-1.35,2.81-.83,6.83,2.95,6.97.69-2.36,1.32-4.05.07-6.4l-3.01-.58Z"/>
      <path d="M133,364.99c2.72-.72,1.84,1.7,3.5,2.99l5.49-6.5-5.54-1.45-.45-6.04c3.44-.73,4.58,1.33,6.98,3,2.24-3.8,4.37-9.93,9.01-11.02.31-.44-4.05-7.08-.5-6.97.67.02,3.52,4.34,3.11,6.03-.54,2.24-9.11,8.74-10.16,10.97-.71,1.5.67,2.98.58,4.46-.2,2.98-9.17,10.89-11.54,13.51l-.67-1.84-1.85-.66,2.03-6.5Z"/>
      <path d="M701.79,468.29c.24.18.23,1.4.87,1.72,1.64.84,3.69,1.03,5.33,1.99l1.03-6h2.98c.14,2.14-.71,4.85.99,6.52.39.38,8.97,5.2,9.51,5.19.76,0,2.61-2.53,4.5-1.71l-.94,4.89,5.46,3.11.97-2.03c4.5-.98,2.1,3.3-.19,3.9-1.37.36-6.43-2.05-7.67-3.01-3.04-2.33-3.86-4.53-8.41-6.59-5.06-2.3-7.13-1.45-11.48-2.52-4.61-1.14-10.92-6.27-15.73-7.77-.24-1.84,2.08-.84,3.06-.56,1.57.45,9.31,2.55,9.73,2.86Z"/>
      <path d="M368.2,362.83c.12.18,1.34.06,1.76.89,2.34,4.65,1.22,7.12,6.02,11.81,3.74,3.65,5.8,4.98,10.97,3.91,1.49-.31,2.36-1.3,2.05,1.06-5.42,5.94-13.07-.25-16.97-5.01-3.31-4.03-3.92-8.84-8.02-12.05l-4.99,1.56c-.58-4.83,6.21-5.39,8.52-8.99l2.48,1.51-1.8,5.31Z"/>
      <path d="M524,422c-1.4,1.17-15.04-6.96-16.98-8.52-3.49-2.79-.36-5.14-7.5-1.47-2.29-1.56-1.44-2.87-.52-5-.88-.75-6.51,1.6-5.99-1.5l11.35-3.42c3.72,1.08,2.79,7.46,3.08,7.9,1.61,2.43,11.12,7.05,14.09,8.98,1.28.83,2.96.75,2.47,3.03Z"/>
      <path d="M598,470c.11-.11.5-3.12-.67-3-3.16-.27-6.93-2.18-6.33-5.99,4.4.7,6.09,5.37,10.5,1.01,2.96,1.89.2,4.2.61,6.83,1.83,2.52,7.26.93,7.88,2.66.84,2.33-1.45,3.59-3.32,3.27-1.6-.28-3.92-3.37-5.35-3.65-1.17-.23-2.32,1.72-3.87,1.91-3.6.45-14.26-8.61-16.46-12.03,3.28-.59,15.32,10.74,17,8.99Z"/>
      <path d="M261,318c4.45-.07,2.43,4.71,3.18,7.31.47,1.64,3.86,3.07,2.7,4.59-.17.22-5.26.33.2,2.68-2.17,5.37-.34,10-.07,15.41l3.86.12c.58.37,3.02,9.2-.87,7.89l-3-6.01.98,10c-1.42.24-1.44-1.77-1.69-2.79-1.99-7.87-3.7-17.19-5.11-24.9-.27-1.48,1.39-2.48,1.45-3.8.11-2.1-3.03-7.21-1.63-10.51Z"/>
      <path d="M144.99,410l-4.01,10.49c1.1,1.66,1.08-.85,1.58-1.41,1.22-1.35,1.66-1.24,3.42-1.08l.97,4.38c-.48,1.76-4.49,1.6-4.95,3.12-1.1,3.62,3.96,2.77,2.99,4.98-.91,2.07-3.07.67-4.01,1.09-5.66,2.47,4.55,7.68,6.7,9.25,1.23.9,2.78,1.04,2.32,3.17-5.94-1.45-15.44-3.12-12.82-11.31.39-1.23,1.99-1.92,2.59-3.42,2.36-5.93-.97-5.53-1.65-7.96-.64-2.28,4.73-9.54,6.88-11.31Z"/>
      <path d="M89,304.01c4.65-1.51,9.86-3.44,7-9.01,3.8,1.15,5.64-1.53,8.05-2.45,2.15-.82,6.2-.32,6.82-3.24.43-2.03-2.47-4.99,1.11-6.84,4.18-2.15,3.32,1.26,3.26,3.25-.16,5.48,5.93-2.78,8.75-1.73l-4.99,5.5c-5.79-.52-5.22,1.85-7.66,3.31-1.77,1.05-10.89,3.82-11.22,4.32-.49.76.13,2.9-.27,4.2-.75,2.45-7.92,3.55-10.34,4.69l-.51-2Z"/>
      <path d="M106,224.01c-9.4-.8.53-11.34,3.1-2.07,2.18,0,5.21-2.49,6.59-2.79s2.47,2.11,3.76,1.86c3.06-.6,2.03-8.14,3.03-10.02.9-1.69,2.62.13,3.01,1.02,1.1,2.55.42,6.14.41,8.9-2.14-.18-3.99,1.61-5.67,1.93-2.81.53-7.07.26-10.52,1.16-1.05.27-1.18,2.43-2.74,3.47-1.05.7-8.52,3-6.97.05,1.13-2.14,5.26-.81,5.99-3.5Z"/>
      <path d="M577.19,573.31c-3.63-12.08,14.44-16.21,16.65-4.57.96,5.08-6.02,11.16-10.87,9.84-1.45-.39-5.34-3.85-5.77-5.27ZM588.81,565.21c-8.77-3.3-12.37,10.55-3.39,9.76,4.9-.43,6.73-6.23,3.39-9.76Z"/>
      <path d="M521.01,588.01l3.99,2-1.72,4.5,2.73,5.49,6.98-2c.94,2.76-1.78,1.47-2.03,2.66-.22,1.05.1,2.26.03,3.34-5.93-.28-8.68-7.01-12.48-10.92-.6-.05-4.1,3.33-5.51,1.42,3.74-2.07,4.74-7.52,7.63-9.37,2.13-1.37,6.77-2.36,9.34-2.67,1.11-.13,4.05-.74,4.02,1.04-.02,1.24-11.07,3.68-12.98,4.51Z"/>
      <path d="M537.85,381.11c.3.21.61,1.99,1.61,2.91,3.04,2.79,8.64,3.55,9.31,4.19.74.71,2.56,4.37-.27,3.81-4.5-.89-9.23-6.86-14.48-4.02l-.03-4.97c-2.61.76-4.92-1.6-6.69-1.86-3.42-.5-4.23,2.98-6.23-3.76-1.34-1.06-2.73.32-3.8.38-3.99.24-2.51-5.64,4.06-3.6,1.18.37,1.83,1.79,2.77,2.23,1.9.89,9.18,4.96,9.8,5.1,1.3.28,3.14-.98,3.96-.41Z"/>
      <path d="M474.17,84.17c.74-.67,4.08.38,4.8-1.74l-3.97-14.43c3.08-.37,3.17,3.32,4.52,4.97,1.69,2.08,4.85,2.76,5.48,6.01l-5-1.99c2.52,8.64.06,5.96-3.73,9.28-1.46,1.27-3.01,4.56-5.78,5.67l.37,7.92-3.86,1.13c1-3.33,2.91-4.15.99-8l-3.99,1c-.88-10.02,4.62-4.01,5.97-4.47,3.78-1.31,3.66-4.86,4.2-5.35Z"/>
      <path d="M453,280.01l5.24-1.87c4.43,2.86,10.27,2.96,15.14,4.96,2.1.86,4.06,1.58,2.62,3.88l3.88-.13,2.61-4.71,3.52,2.83c-3.12-.22-2.56,2.78-3.51,4.01-1.78,2.31-11.89.63-14.49-1.5l6.99-1.49c-4.39-.78-8.84-1.4-13.23-2.27-2.45-.48-3.87-2.68-7.16-.9l-1.6-2.83Z"/>
      <path d="M208.2,396.82c-1.41-1.93,1.34-9.51,2.34-11.83.68-1.57-.1-2.45,2.45-1.99l-1.99,11c4.19-3.87,6.55-1.49,6.99,3.48l-4.54,1.45c-.98,3.87-1.33,6.54.51,10.02-3.86.45-3.69,5.6-4.72,8.85-.54,1.69.48,2.66-2.25,2.2.45-7.17,3.21-13.45,3.98-20.59.36-2-2.3-1.92-2.79-2.59Z"/>
      <path d="M165.99,449l-2.01,3c-4.96.46,1.09-5.89,2.52-7.03.97-.77,2.46-.69,3.2-1.26,1.29-1,.77-3.2,3.79-3.72,3.41-.58.19,2.69-.22,3.79-.66,1.76-.55,3.48-1.78,5.22-1.99,2.82-1.25-1.42-1.99-.99-2.96,3.53-4.8,8.36-4.5,12.99l3.08-8.93c5.25-.81,2.1,1.99,1.14,4.65s-1.49,5.06-2.2,7.64c-.39,1.42-4.25.97-4.89-.99-1.55-4.74,2.97-9.96,3.87-14.37Z"/>
      <path d="M105.01,311c4.14,1.33,8.34,2.65,12.48,4.02,1.2.4,2.93.83,2.51,2.48-5.23,2.6-9.42,10.17-15.37,9.4-3.63-1.21.53-12.73.38-15.89ZM107.01,314l-1.01,5.99c3.54.07,6.8.81,9-2.5l-7.99-3.5Z"/>
      <path d="M484,424l-2.93.05-.07,6.95c2.8-.04,4.23-2.75,7.29-1.86,1.16.34,7.72,6.82,6.7,7.86-2.4.54-6.45-4.71-7.48-4.78-1.48-.1-4.79,5.02-8.28,1.54-1.57-1.56-.85-6.31-2.36-9.13-1.21-2.25-6.82-5.29-6.86-6.13-.04-.89,1.89-1.66,3.27-1.3.58.15,9.24,4.04,9.66,4.36,1.01.77,1.3,1.08,1.06,2.44Z"/>
      <path d="M104,196l6.98,1.99v-2.26s2.51-.72,2.51-.72l1.63,3.86,3.88.13c-4.11-7.24,12.31-10.61,6.22-1.48l2.77,2.99c-.69,1.13-1.06.95-2.03,1.11-3.88.63-17-.18-20.26-1.8-1.99-.99-1.87-1.77-1.69-3.8Z"/>
      <path d="M507,497c-3.96-.3-5.41-4.05-1.49-5.99,2.43-1.2,1.36,4.95,1.49,5.99,2.58-.34,5-7.75,7.98-3.51l-3.98,6.49c3.04.16,4.26,3.6,6.62,4.89,1.62.88,6.06,1.2,6.37,2.63.29,1.35-1.09,2.44-2.41,2.46-.99.01-4.48-2.37-3.57.51,1.31,4.17,6.51,4.39,6.98,8.51-6.25-1.34-12-6.08-9.07-12.87-4.88-3.07-8.15-3.01-8.93-9.12Z"/>
      <path d="M273.03,110.08l3.97-1.61c.8-2.74-6.33-7.04-.07-12.03,10.18-8.11,16.35,12.59,2.17,11.66-1.21,2.51-.58,2.87.9,4.9l-5.48,2.02-1.49-4.93ZM278.25,98.25c-3.34,3.42.95,8.68,4.78,6.29,4.59-2.86-1.2-9.95-4.78-6.29Z"/>
      <path d="M497,291.99c-.23-2.01-4.44-1.4-4.9-3.61-.4-1.89,1.68-4.01,3.6-4.17,2.22-.19,16.91,2.43,17.04,4.24l-.76,4.54c-.29.4-8.44-.81-8.8-1.16-.49-.47-.02-2.54-1.13-3.34-.97-.7-4.56-1.15-6.04-1.47,1.2,2.43,5.02,2.35,4,5.98l-9.99,1c-.26-1.46,1.87-1.25,2.98-1.5,1.33-.29,2.64-.59,4.01-.5ZM509,289.01h-4.99v.98h4.99v-.98Z"/>
      <path d="M146,141.01l5.85-1.16c2.05-1.76-1.64-12.32,9.51-5.71,10.22,6.06,1.96,9.5-6.36,7.85v7c-4.02.14-2.97-4.33-3-6.99-.96-.99-6.97,3.38-5.99-.99ZM156,136v3.99s6.99,0,6.99,0c.89-3.07-6.12-4.87-6.99-3.99Z"/>
      <path d="M449,280c.3,1.91-.76,2.68-2.49,3-8.39,1.53-19.59-3.59-26.01-8.87-.45,1.92-6.59,4.33-6.48,1.37.02-.51,5.05-5.2,6.48-5.18,8.29,5.24,18.22,12.73,28.5,9.68Z"/>
      <path d="M571.02,350.03l10.97-1.03c.66,4.55-6.37,2.42-6.99,3,2.24,8.1,8.92,3.41,14.41,1.95l3.58,3.04.5-3.99,1.4,5.38-2.16,1.44c-8.95-3.8-20.28,4.39-21.71-9.79Z"/>
      <path d="M542.21,341.22c4.33-.83,7.5-4.54,11.79-4.22v7.01c-2.73,1.33-3.08-2.01-3.59-2.07-.75-.09-3.93.74-4.95,1.07-.89.28-2.02-.61-1.42,1.46,1.99,6.87,3.73,4.11,7.99,4.94,1.81.35,5.27,1.69,5.97,3.6l-8.42-1.04c-.96-.02-1.05,3.99-3.57,3.04-.2-3.32-6.73-11.03-3.8-13.78Z"/>
      <path d="M71.77,193.77c2.11-2.14,1.76-7.55,7.72-6.78,2.02,4.17-5.29,5.45-4.52,10.01-2.72-1.33-4.89.1-7.44.05-1.72-.03-3.3-1.08-5.04-1.09-3.64-.02-7.79,2.54-11.99.01l-1.01,3.01c-2.39-1.08-1.85-8.02,0-7.98,3.56,7.07,5.72,2.58,10.14,2.27,2.79-.2,9.48,3.18,12.13.49Z"/>
      <path d="M182.99,330l-3.98,12,5.22-8.27c1.08-1.78.18-5.71,2.28-6.72,1.97-.95,1.36,1.48,1.6,2.36,1.96,7.23.57,4.09-2.66,7.57-1.95,2.1-3.27,4.66-5.45,6.57l6.51,3.49c.95.54-.78,1.96-1.03,2.01-1.14.23-9.01-4.02-9.32-5.63,1.47-4.57,2.41-10.67,6.83-13.37Z"/>
      <path d="M249.34,344.66c1.09,1.09,3.22,1.02,2.67,3.34-3.13-1.57-4.89,4.46-4.65,6.55.17,1.49,3.39,2.34,2.63,4.43-3.65.26-3.13,3.1-2.99,6.03.84.75,6.06-1.72,5,1.99-1.51.36-3.76.64-4.96,1.55-2.16,1.62-.93,5.17-4.03,4.46,1.14-5.22,1.99-10.12,2.46-15.5.12-1.38-.66-3.17-.51-4.96.17-2.03,1.3-10.52,2.55-10.52.93.63,1.13,1.93,1.84,2.65Z"/>
      <path d="M548,476.01l-7-1.02.97-2.53,10.02-.45-.57,6c2.38,2.24,5.49,2.14,8.57,2l-1.01,4.99c-3.76,1.19-6.14-3.73-7.94-4.48-.94-.39-2.71.63-4.31.34-2.07-.38-4.79-2.94-5.74-4.85,2.52-.51,5.65,3.85,7,0Z"/>
      <path d="M183.97,410l3.02-7-4.34.92-1.65-2.92,8.07-.57c2.85,4.25-.68,8.15-2.13,12.01l3.06,3.55c-2.06-.38-9.69-.7-10.56-1.93-2.22-3.12,1.18-6.74,4.54-4.07Z"/>
      <path d="M119,340l4.39-.87,1.6,2.87c-5.21.07-6.4,1.7-8.5,5.99l-.5-4.98c-4.17.94-11.21-.52-7.06-5.58s12.21-7.14,10.07,2.57ZM117,336.01c-.79-.7-5.85,1.83-5,3.99l3.87-.13,1.13-3.86Z"/>
      <path d="M493,364l7.99-1.01c-1.28,6.18,2.88,5.75,6.51,8.93,1.78-.42,2.09-4.73,3.99-3.92,2.88,1.23-1.24,5.31-.37,8.3.6,2.06,4.75,2.67,4.88,5.68-5.63.64-6.66-5.31-9.03-7.46-1.47-1.33-4.3-1.75-5.94-3.06-1.48-1.19-2.04-3.33-3.05-3.95-1.7-1.04-5.41-.03-4.97-3.52Z"/>
      <path d="M446.94,307.04c1.03,4.03,7.21,4.08,9.56,7.95,1.57-1.31.95-7.52,3.98-6.99,2.22.39.32,3.61.54,3.88l7.36,3.04.61,3.06c-4.25,1.04-5.52-1.67-8.49-3.01l-2.09,2.95c-3.45.95-4.64-2.17-7.09-3.76-2.94-1.91-11.29-5.46-4.39-7.13Z"/>
      <path d="M594,306c2.7-.79,1.6,1.36,2.64,2.03,3.45,2.22,5.35.02,7.8-.08.68-.03.48,1.56,1.22,2.06,1.31.88,5.81,1.54,6.21,2.11l-.31,6.94c-2.18,3.28-15.97-1.39-13.55-4.06l10.49,2c1.87-2.82-.91-3.95-3.44-4.57-4.41-1.08-12.29.67-11.06-6.43Z"/>
      <path d="M517.01,291.03c2.22-.08,4.25-1.12,6.49-1.12,4.16,0,13.5,1.3,17.27,2.82,1.25.51,2.95.54,3.23,2.26-2.39.93-6.82-1.09-8.38-.79-2.21.43-2.81,4.39-9.01,3.74-1.2-.13-5.55-1.38-5.6-2.45-.13-2.93,9.27,1.84,9.98-2.49-2.9.55-5.81-1.22-8.51-1.11s-3.16,2.11-5.48,2.1v-2.97Z"/>
      <path d="M451,433c.46,2.99-3.27,2.46-4.49,5.01-2.49,5.21,2.42,3.41,4.97,6.76l3.4-2.36-.87-3.4c4.32-.86,5.02,3.36,3.07,6.34-1.74,2.66-5.97-.71-3.08,6.65-1.92.47-1.93-.7-2.82-1.68-1.41-1.55-8.91-9.3-9.05-9.96-.57-2.67,5.61-8.3,8.86-7.36Z"/>
      <path d="M428.98,189l1.46,2.81,3.46-.92c1.39-3.58-2.5-8.15.61-10.89l1.5,5c1.91-1.25,5.17-1.31,5.04-3.95,1.53-.5,2.45,1.42,3.42,1.55,2.96.39,10.42-4.25,13.52-1.09l-20.95,4.54c.56,3.57-.91,7.1-4.78,7.81s-8.11-1.98-3.29-4.86Z"/>
      <path d="M317,357c-.71,3.78-5.97,4.09-4.99,8.99,1.6.37.49-1.37,1.7-1.97,2.53-1.26,5.77-2.01,8.28-4.02,1.42,1.45-4.54,5.15-4.85,6.64-.58,2.78,3.15,5.17,5.83,4.39.09,2.2.59,4.49-1.48,5.95-2.79-.97-5.36-7.86-6.44-8.52-.77-.47-2.66,1.03-4.06.12-4.51-2.96,1-12.29,6-11.58Z"/>
      <path d="M226.15,336.16c.33-.48,2.75.53,1.84-2.16l-4.49,1.01-.53-2.51c2.92-.25,5.63-6.89,7.51-6.49,3.16.67-.34,4.97-.5,6.57-.27,2.62,1.57,5.14,1.04,7.77-.06.3-3.63,2.52-3.59,4.63l-5.43,5.02c-1.05-4.2,3.87-7.36,4.6-9.96.45-1.58-.94-3.18-.46-3.87Z"/>
      <path d="M584.99,308c.12-3.1.85-9.1,5.01-7.99-.65,1.76-1.86,3.7-1.99,5.61-.14,2.14,2.03,5.57-.58,6.34-3.57,1.05-4.34-2.12-6.49-3.39-1.17-.69-5.37-2.18-6.7-2.38-2.39-.36-7.51,1.92-6.24-2.67,1.17-4.22,14.85,2.46,16.98,4.49Z"/>
      <path d="M234,411c1.04-.99,2.8,1.72,3.49,1.72l6.17-3.59c5.95,1.63-1.34,6.99-2.13,8.82-.37.86.54,2.47.07,4.05-.7,2.36-3.37,3.5-4.08,5.01-.91,1.93.01,4.5-2.02,5.98-2.86-3.77,2.09-7.97,2.4-9.66.23-1.26-1.67-2.25-1.7-2.85-.04-1.1,7.26-5.93,5.79-7.49-1.66.55-3.01,3.04-5.06,2.55-1.91-.45-4.18-3.36-2.93-4.55Z"/>
      <path d="M116,118l9.52,4.09c2.11.03,2.15-4.61,6.47-3.09-1.47,4.08.61,7.65,5,5.98-1.22,5.04,4.38,5.75,5,10.01-1.88.42-2.36-1.05-3.5-2-2.42-2.02-6.78-7.67-9.47-8.43-1.34-.38-3.48.65-5.45.43-2.36-.27-9.06-5.57-7.58-6.99Z"/>
      <path d="M210.73,282.72c.43-.32,5.01-8.8,5.14-9.44.4-1.99-3.3-7.42-.36-7.26,1.5.08,3.79,4.01,3.34,6.25-.32,1.63-6.15,11.65-7.34,12.74-1.58,1.44-3.43.6-4.31,1.18-.61.4-.96,3.55-2.17,4.33l3.98,3.48-6.05-.44c-2.86-1.82,1.14-7.68,3.05-9.04,1.59-1.13,3.71-1.04,4.72-1.79Z"/>
      <path d="M366,457c1.84-1.31,8.98,5.17,11.08,6.42,2.54,1.52,4.71,2.57,7.54,3.5,1.55.51,2.89-.95,2.37,2.07-7.5,1.28-12.72-3.65-17.99-8-.71.87,3.48,9.67-1,11,1.21-5.51-3.57-9.91-2-15Z"/>
      <path d="M445,494.02l6-1.01c-1.94,10.67,10.96,13.54,10,24-3.15-1.29-3.25-5.39-5.32-7.68-4.68-5.17-4.77-6.54-8.25-11.3-.98-1.34-3.36-.47-2.43-4.01Z"/>
      <path d="M53.01,283.02c6.75-1.57,4.93-3.96,6.19-8.32,1.52-5.27,7.5-1.42,10.32.34l3.48-2.55c2.11-1.38,4.65,1.26.97,3.97-2.03,1.5-4.81,2.11-7.27,1.36-1.82-.55-2.36-3.28-4.68-2.82-.98,2.29.58,4.7-.91,6.55-.94,1.17-9,6.07-8.09,1.46Z"/>
      <path d="M429,417l-.99,7.99,6.48-3.99c1.76,1.41,1.43,3.64,2.45,5.56,1.9,3.54,6.23,5.31,6.05,9.44-4.5-2.48-6.99-6.33-10.49-9.85l-4.18,2.72-2.82-1.83c1.03-3.2-1.27-9.93,3.49-10.03Z"/>
      <path d="M281.01,347c4.6,2.61,3.45,7.61,9.99,5l-.58,3.08-3.44,1.5,1.03,4.41c1.58.31.94-1.78,1.94-2.53,7.31-5.46,5.39,14.02-2.81,4.89l-6.13-16.36Z"/>
      <path d="M380.23,486.23c1.57-1.52,10.05-3.73,11.76-.71l-5.99,1.49,4.99,11c-4.62-1.09-7.03-1.53-9.99-5.5-1.38-1.85-2.83-4.27-.77-6.28ZM383.01,489c-.82.95,2.39,5.69,2.98,5,.59-1.41-2.43-5.65-2.98-5Z"/>
      <path d="M520,452v6c4.94-.31,7.55-4.2,12-4.01-1.22,4.9,3.08,6.85,4,11-2.93.85-6.79-6.98-7.49-6.95-2.94,2.83-7.59,3.04-11.51,2.96.32-3.16-1.6-8.98,3-9Z"/>
      <path d="M430.99,359c-.08,3.97,5.44,8.04,9.01,6l.13,3.89c1.28.15,2.24.43,3.37,1.11,1.29.78,4.08,2.11,3.51,4-7.09-1.63-12.5-6.53-18.44-9.99l-4.55,3.99c-.34-3.87,2.84-9.54,6.98-8.99Z"/>
      <path d="M410,204c-.18,2.06.86,10.86-1.49,10.98-2.78-2.4-11.56-2.79-14.83-2.01-1.16.28-1.86,4.89-4.67,4.03l-.89-3.37c.42-2.03,8.37-3.68,10.39-3.65,2.59.03,5.43,2.5,7.58-.4,1.38-1.86.32-5.93,3.91-5.57Z"/>
      <path d="M138,200c2.07.61,4.9-.75,6.53-.58s5.76,4.36,9.47,2.58c.12-2.45-.87-5.26,1.5-6.99,1.48-.05,3.17,9.92.53,11.52-2.17,1.32-9.68.21-8.04-3.53-3.14.79-5.61.26-8.59-.93-1.28-.51-1.77.47-1.4-2.08Z"/>
      <path d="M448.01,262.99c-1.21-2.32-1.36-4.73-.79-7.28,1.99-8.99,14.35.95,6.3,7.3-2.22,1.75-9.33,4.67-10.51,1l5.01-1.02ZM450,256l-1,6c3.65-.85,6.57-5.1,1-6Z"/>
      <path d="M676.01,319c1.87-.39,1.96.5,2.74,1.75.84,1.33,5.21,8.28,5.29,8.79.57,3.83-2.2,5.71-5.59,6.41-.88.18-4.68.8-4.44-.94l6.97-2.53c2.84-2.16-2.27-4.7-3.48-6.47l-1.94,2.08-7.55-2.59,6.04.09,1.97-6.58Z"/>
      <path d="M139,59c2.09-.45,2.27,1.08,3.22,2.28,1.57,1.98,5.07,8.66,7.19,8.69,1.91.03,3.83-2.36,5.57.53-4.75,3.64,2.15,8.46,1.01,13.5-2.55,3.08-5.7-11.32-6.19-11.8-.68-.67-3.46-.32-4.59-1.43l-6.22-11.76Z"/>
      <path d="M517,267c.52-3.08-.16-3.13-1.71-4.73-3.88-4.02.77-3.97,3.68-1.74,3.11,2.38,2.44,6.04,9.02,4.48-.23,5.37-4.75,1.47-7.35,1.91-.93.16-.87,2.04-1.6,2.59-2.06,1.57-10.12-.76-12.04-3.01l10,.5Z"/>
      <path d="M393.21,518.19c.65-.99,8.8-6.24,10.79-5.18l-1,2.99c4.96-2.27,8.64,2.14,8.99,7.01l-4.5-4c-2.76,5.79-5.26,2.69-6.51-2.01-.44-.65-5.92,3.76-6.49,3.99-1.98.81-1.86-1.93-1.28-2.8Z"/>
      <path d="M169.01,243c2.95,1.29,7.63.38,10.35-1.18,1.43-.82,1.48-2.77,2.31-2.9,1.28-.2,2.78.73,3.86.61,2.67-.29,5.36-2.3,8.47-1.53.46,2.56-.42,1.78-1.99,2.45-5.12,2.21-11.45,3.99-17.01,4.55l4,.99v3s-3.43-.07-3.43-.07l-.78-2.45-2.29-.5c-.86.16-.4,4.92-3.49,4.01v-6.99Z"/>
      <path d="M481,355.01l-3.99,2.98c4.36.26,10.23-1.69,11.01,4.01l3.98-2-.12,4.86-3.85.68-3.71-4.58-9.24-.05c-1.03-2.27-.63-4.5.87-6.51l5.05.6Z"/>
      <path d="M215.99,114l-5.98-9c.43,6.4,2.31,13.77,4.98,19.51l-3.99,1.49,1.99-2.46c-1.74-1.99-1.66-5.99-2.92-7.88-.88-1.32-8.46-2.75-1.8-3.65,2.39-.41-.28-3.97-1.9-4.89s-4.28-.49-4.37-2.12c3.46.54,5.65-.32,8.51-2.04,3.41-.11,5.21,8.09,5.48,11.03Z"/>
      <path d="M140.99,222h4.01s0-5,0-5c2.63-.76,2.4,2.75,3.66,3.04,3.35.77,5.62-2.15,6.66-1.9.79.2,1.49,1.42,2.33,1.6,1.94.42,6.13-2.58,8.35.75-.61.91-2.54,1.18-3.6,1.39-5.6,1.1-13.05,1.6-18.89,2.12-2.17.19-2.89.42-2.51-2.01Z"/>
      <path d="M338,355.99c-4.29-.49-6.81.6-9.99-2.99-.88.98,6.39,10.5,7.99,11.5-3.84,2.14-11.72-10.22-10.93-12.9,1.04-3.5,12.98-.52,12.93,4.39Z"/>
      <path d="M290.01,338l9.07,13.95,6.51-2.94-.58-5.01,4.99,4.48c-3.62,3.83-10.5,9.71-14.22,3.24l-5.77-13.72Z"/>
      <path d="M696.01,537c2.92,1.11,5.61,1.14,7.49,3.99l5.5-4.98c.14,1.61.9,1.85.12,3.51-2.33,4.9-5.2,7.15-9.1,2.49l2.99,8c-2.09.45-2.26-1.07-3.21-2.28-2.34-2.97-3.93-6.85-3.77-10.72Z"/>
      <path d="M503,321l-1.98,3.5,4.97,4.5c-2.05-.16-3.93-1.1-5.89-1.6-1.52-.39-2.42-1.15-2.09,1.1,3.3,3.1,9.48,2.63,11.99,6.5-2.04.26-14.44-3.47-14.89-4.1-2.35-3.35,3.56-10.74,7.88-9.89Z"/>
      <path d="M90.68,85.33c.91.68,3.88,2.74,4.07,2.93.87.83.54,4.76,4.74,4.8l2.51-2.05c.32,4.57-4.86,7.45-9,6.99l2.99-3.47-15.98-15.02c3.11-1.36,5.53,3.15,7.49,4.55,1,.72,2.36.67,3.18,1.29Z"/>
      <path d="M370,264.99c-2.74.1-5.41-.74-7.99-1.5-2.3-.68-6.56-3.05-7.66-3.23-1.41-.24-3.7.91-6.59.5-1.02-.15-3.46-.64-2.75-2.25,1.27-2.85,4.45-.36,6.28-.67,1.55-.26,3.14-2.39,5.08-1.78,1.29.4,1.58,2.57,2.68,3.39,2.51,1.89,9.18,1.69,10.96,5.54Z"/>
      <path d="M405.99,471c8.73-.64,10.13-2.96,7.01-11,2.67,1.12,9.62-2.53,10.99.51,1.12,2.5-5.36,1.92-6.57,3.45l.44,5.91c-3.45,1.22-6.52,3.19-10.34,3.16-1.99-.01-1.6-.1-1.52-2.03Z"/>
      <path d="M704,337l-1-4.01c-.24-.24-3.62,2.61-2.99-.48,1.07-1.6,6.82-5.86,6.99-2.03.09,2.05.56,8.09-.94,9.08-3.03,2.02-13.09-1.88-17.06-1.57,1.26-3.5,4.17-1.07,6.5-.98,2.83.11,5.68-.07,8.5-.01Z"/>
      <path d="M185,49c9-.45,9.72,5.07,11.99,11.99l-3.99-.99v4c-3.64.68-1.23-4.12-2.52-6.99-1.48-3.3-7.14-3.13-5.48-8.01Z"/>
      <path d="M144,296.02c-2.72.16-4.38-3.18-2.01-4.56,1.15-.67,2.44.55,3.95.05.51-.17,7.56-5.5,8.05-6.05.99-1.13.77-2.72,1.24-3.23.56-.61,8.31-2.62,9.77-4.23.58,2.57-.67,1.73-1.88,2.57-4.25,2.98-11.54,7.34-14.65,11.38-2.32,3-4.17,10.49-8.45,9.55l4-5.48Z"/>
      <path d="M80.99,140.99c-2.4.06-3.15-2.16-5.42-3.07-2.71-1.08-11.9-1.24-10.57-6.41.48-1.88,1.69-1.01,2.72-.76,2.47.59,13.78,5.02,14.17,6.87l-.9,3.37Z"/>
      <path d="M531,232c7.9,2.35,17.12-8.89,6.22-10.76-1.86-.32-4.34,1.75-4.22-2.24,17.42-2.84,15.2,15.93-.51,15.01-1.61-.09-2.84-.89-1.49-2.01Z"/>
      <path d="M720,159c3.41.98,7.04,1.65,10.34-.16,2.5-1.37.94-4.25,3.16-5.83,3.6,3.49,10.37-1.57,15.5,0,.25,1.52-1.85,1.19-3,1.48-2.86.73-7.82,1.27-10.24,2.53-1.69.88-1.77,4.37-5.27,4.97-2.52.43-10.92,1.16-10.48-2.98Z"/>
      <path d="M458,346c4.07-.31,6.05-.37,8.39,3.1,1.3,1.92,2.13,7.05,4.53,5.78.19-.1-.14-3.05,3.08-1.88.36,2.25-.64,3.87-2.63,4.86-5.71-.71-5.37-3.85-7.87-7.86-2.84,6.47-5.88.49-5.5-4Z"/>
      <path d="M403.02,288.01l1.99.5-1.57,6.51c3.85,5.08,11.96-1.45,11.57,5.99,2.02-.04,4.58-2.68,3.99.99-3.89.51-19.07-2.59-18.82-7.3l2.84-6.69Z"/>
      <path d="M598.01,354c3.71-.89,1.07,3.35,2.14,4.86,1.49,2.11,9.36,1.93,9.74,2.27.3.27.01,2.24,1.09,3.37,1.69,1.77,6.6,1.32,6.02,4.5-5.04.89-7.48-4.25-10.96-5.53-2.83-1.04-7.01-1.09-10.04-2.48l2.02-6.99Z"/>
      <path d="M626.01,429c3.51,1.72,4.76-.45,7.99-1-.08,3.2-.93,4.93,2.51,5.99.51.16.97-3.78,2-5,1.18-1.39,2.36-.32,2.5.52.1.62-2.69,6.98-3.41,7.57-1.95,1.62-5.2.75-7.59.9l4-2.49c-.44-1.54-10.01-4.64-7.99-6.5Z"/>
      <path d="M541,268c3.78-.83.98,3.88,2.43,6.06,1.14,1.71,4.79.9,6.62.49,4.92-1.09,11.39-8.56,8.94,2.46-5.48-1.65-11.33,1.34-17.06-.44l-.93-8.56Z"/>
      <path d="M165,384c1.18,3.98-2.25,4.81-3.44,7.05-1.49,2.77-.54,7.59-3.54,8.95v-4.99s-5.01,1.98-5.01,1.98c.82-2.8,3.3-4.4,4.84-6.65,2.14-3.11,1.68-7.42,7.15-6.34Z"/>
      <path d="M291.01,368l8,1-.21,2.82-2.72,1.77.94,3.41,5.48-2.01.5,1.99c-4.78.4-5.1,6.16-9.99,5.01-1.04-.97,3.63-3.49,1-7.33-.83-1.22-3.01.22-.97-3.08-1.93-1.1-2.45-.85-2.03-3.58Z"/>
      <path d="M388,352c4.34-.35,4.45,4.53,8.99,1.99-.77,5.01,2.64,6.09,6.97,6.04l1.02,8.97c-3.9-2.26-2.94-6.3-8.05-7.43l-8.94-9.57Z"/>
      <path d="M638,385.01c10.71-.24,7.42-8.15,7.96-15.54.13-1.81-.33-3.22,1.54-4.45,1.87,1.23,1.39,2.64,1.53,4.45.23,2.96-.14,12.25-1.53,14.55-.84,1.39-8.82,4.83-9.51,1Z"/>
      <path d="M197.01,76l-1-10c3.25,3.15,6.1,10.85,0,12.5,1.66-.05,8.56,7.78,4.5,7.49-.36-.03-2.52-2.77-3.56-3.43-2.28-1.45-5-2.06-6.93-4.06,1.78-2.6,4.01-2.78,6.99-2.5Z"/>
      <path d="M211,321.99l.53-1.99,5.49.48c3.87,6-2.41,6.62-5.52,9.51-1.32,1.23-2.64,3.55-3.91,5.12-.86,1.05.02,2.51-2.58,1.88,1.35-5.93,4.89-10.34,9.98-13.5l-3.99-1.51Z"/>
      <path d="M476,542.01c2.28.03,7.72-3.5,8.99-.5.9,2.13-2.35,1.15-1.99,1.98,1.73,1.91,3.78,5.07,4.53,7.47,1.07,3.38,1.2,4.63-2.53,4.04.75-4.04-3.32-6.06-3.01-10.01l-3.98,2-2.01-4.99Z"/>
      <path d="M120,184h4.99s-2.99-3.49-2.99-3.49l4.48-2.51c2.12,1.03.87,4.25,2.1,5.11.96.68,3.74.66,4.94,1.82l3.47-2.93v5c-5.51-1.71-10.24-.7-15.51-.99-1.63-.09-2.79-.88-1.48-2Z"/>
      <path d="M467.01,259.01h-3.01s0-3,0-3l5.07.42c1.4.99.49,3.71,1.1,4.4.57.65,4.6.06,3.83,3.16-1.66.24-3.82-.4-5.32-.03-.86.21-.93,2.04-2.32,2.85-1.66.96-4.42,1.19-6.35,1.17,3.02-2.89,5.69-4.68,7.01-8.99Z"/>
      <path d="M373,346c4.62,1.19,4.39-1.4,7.5-2.65,6.03,1.12,5.65,4.7,1.05,7.69-4.91,3.19-10.23-3.47-8.55-5.05Z"/>
      <path d="M141.01,274c2.32.92,6.68-.02,7.15-2.82l1.83.83v-6c2.43-.08,4.41,1.25,4.87,3.64.4,2.07-.53,1.13-1.84,1.83-1.88,1.01-6.99,2.97-8.01,4.03-.97,1.01-.9,2.53-1.58,3.41-1.53,2-4.28,1.01-2.42,5.05-1.55-.43-5.6,2.66-5.02-.48.78-4.23,7.8-3.46,5.02-9.49Z"/>
      <path d="M414,329c.62,1.25,3.53,1.84,5,2,2.75,1.89,5.38,3.73,8.51,4.98l1.99-4.96,2.49.99c.22,2.82-.31,6.59-3.62,6.71-2.67.1-18.23-9.03-17.37-9.72.83-.19,2.57.25,3,0Z"/>
      <path d="M414,329c.09-.05-.17-1.21.49-1.99,1.65-1.97,3.68-4.49,6.51-4l-.98,5.44c1.4,2.86,4.63-1.47,3.98,2.55-1.63-.12-3.38.18-5,0-1.28-.88-1.69-2.99-5-2Z"/>
      <path d="M553.86,154.86c.5-.34.5-2.53,1.42-3.6,1.04-1.2,5.79-4.18,7.73-4.26-.73,2.32-3.64,2.89-5.03,4.46-1.21,1.37-1.5,3.51-2.48,4.52-2.23,2.3-11.53,2.87-13.9,1.11-1.1-.82-.33-4.62-2.58-5.6l2.47-1.5c1.46.35,1.5,5.14,4.21,5.88.69.19,7.82-.79,8.16-1.02Z"/>
      <path d="M612,588c.94.87-2.55,5.37-5.27,4.87-3.58-.65-10.06-9.75-11.22-9.76l-2.49,1.88c.28-12.7,9.68,3.46,13.92,4.57,1.84.48,3.07-2.05,5.07-1.57Z"/>
      <path d="M474.92,385.08c.14.12.22,2.23,1.03,3.44,1.96,2.91,5.97,2.74,5.05,6.48-4.53-1.16-5.25,3.51-9,4l3.07-7.41c-.67-1.69-6.99-2.08-6.07-4.07.78-1.68,4.63-3.55,5.92-2.43Z"/>
      <path d="M403,384c.76,5-5.27,6.43-5.01,11-3.42-.32-2.59-3.07-3.19-3.75-.54-.62-4.04-.7-4.78-2.76l12.98-4.5Z"/>
      <path d="M373,301c2.07-1.77,17.47,7.56,20.11,9.42,1.2.85,2.45,0,1.88,2.57-.8.73-17.66-7.49-19.69-8.8-1.34-.86-2.71-1.16-2.3-3.19Z"/>
      <path d="M413,208c1.61-.06,3.59.39,5.02-.47,2.14-1.29.65-5.86,4.97-4.53v6c.89.9,8.9-3.65,8.01,1-2.28-.22-4.35.82-6.56,1.06-1.48.16-3.02-.78-4-.68-1.47.15-2.33,3.37-4.44,2.63l-.14-2.87c-1.88-.48-3.43.77-2.86-2.13Z"/>
      <path d="M267.01,366l2.98,3c-.55-2.99-2.69-6.78,2-7-.63,3.6.23,3.87,2.99,5.5-1.95,1.88-4.73,2-3.98,5.5l4.98.49c-1.28,1.41-5.53,3.26-7.05,2.1l-1.94-9.58Z"/>
      <path d="M137.02,323.99c.95.68,6.61-4.96,5,.51-.24.8-4.26,1.89-4.78,2.74-.61,1,0,2.82-1.15,4.33-.54.72-5.41,4.01-6.08,3.42l3.91-4.68c.51-1.99-1.63-3.09-1.93-4.85-.85-5.06,4.26-6.54,5.03-1.46Z"/>
      <path d="M487,226c5.82,1.81,8.62-1.9,14-2l-4,3.98,5,3c-2.65.7-6.41-1.8-8.52-1.58-2.77.28-6.73,7.34-6.48-3.41Z"/>
      <path d="M58,225.97l-.89-5.32c6.1-5.67,4.15,3.78,5.08,5.19.54.82,3.59.63,2.81,3.17-5.15-1.78-9.2,1.59-13.99,0l6.99-3.02Z"/>
      <path d="M420,469l12,1-2.18,8.82-7.83.17c-1.07-3.85,5.03-1.15,6.01-2l.04-3.39c-.33-1.38-10.92-2.2-8.04-4.6Z"/>
      <path d="M476.85,226.86c1.09-.71.07-4.91,3.15-3.85l-.91,10.58c-1.19,1.49-4.52,2.13-6.08.92,2.32-2.32,4.9-.19,4-4.5-1-.85-9.26,1.52-11-1.51,2-1.11,9.5-.75,10.84-1.64Z"/>
      <path d="M722.64,336.58c.39-.3.36-1.47.88-1.61,3.88-.98,2.3,2.88,3.67,3.85,2.28,1.6,11.83.34,13.81,4.17-3.94-.31-8.59-.47-12.45-1.03-1.7-.25-2.99-1.57-4.17-1.7-.64-.07-6.64,1.55-4.89-1.26.54-.86,2.19-1.67,3.15-2.42Z"/>
      <path d="M438,206c4.82.97,6.83-1.71,8.02-6,3.09-.92,2.52,3.86,3.58,4.06l11.41-.06c-.88,2.07-8.65,3.11-10.54,3.07-2.18-.04-3.39-1.78-3.97-1.79-.51-.01-8.63,6.4-8.5.72Z"/>
      <path d="M440.99,100l2.51,5.98c.56-.02,7.02-7.26,9.5-5.49-2.09,1.54-6.08,6.03-8.05,6.99-1.22.59-2.88.23-3.71.75-1.07.67-1.47,4.98-5.23,3.76-.32-2.59,2.76-3.03,3.05-5.54.19-1.73-.72-3.22-.93-4.86l2.87-1.59Z"/>
      <path d="M452,403l5.37,1.08,4.12-4.08c3.14,2.08-1.4,4.11-1.47,6.49-.07,2.05,2.36,3.34,1.98,5.51-1.72-1.82-5.5-1.44-6.75-2.24-.64-.41-4.13-5.86-3.24-6.75Z"/>
      <path d="M135.83,256.77c.43-.66.13-1.94.17-2.78,2.1,1.23,3.75.93,5.88-.12l.12-3.87c3.43.28,2.29,4.44,7,3,.79,3.39-3.83,1.62-6.31,2.2-2.02.47-3.29,2.27-4.99,3.01-3.49,1.5-6.41.52-8.21,4.78-6.83-7.11,4.77-3.83,6.33-6.21Z"/>
      <path d="M559.01,452c6.79,2.8,10.65-4.76,13.01-10,7.08.54-2.2,10.92-5.27,12.24-2.64,1.14-7.78,1.97-7.74-2.24Z"/>
      <path d="M540.01,263.99l7.54-1.04c2.38-.07,4.54,1.2,6.92,1.1,1.47-.06,8.38-2.71,7.53,1.43-.14.7-6.76,2.32-7.32,2.29-3.45-.17-10.46-3.82-14.67-3.79Z"/>
      <path d="M346,72l3.88.94c-.01-1.86,6.92-9.09,8.12-7.93-.84,3.37-5.49,6.18-6.54,9.01-.54,1.46,2.17,2.07,1.53,3.98-4.65-2.08-4.82,2.25-8.99,2,.77-3.61,3.83-3.59,2-7.99Z"/>
      <path d="M415,379c-.87-3.37-7.05-4.13-7-8l6,1.99-2-2.98c1.35-1.09,12.54,4.35,6.17,6.46,1.65,4.74-.89,2.73-3.17,2.53.21.8-.13,2.06,0,3-3.25.31-3.3.26-3-2.99.99.03,2.02-.09,3,0Z"/>
      <path d="M441,588c-5.27.64-12.66.33-14-6,2.83.1,4.69,2.52,7.55,2.95,4.17.62,8.62-1.75,11.85-.86,1.11.31,2.12,1.56.6,2.43-.98.56-2.94-.01-4.56.31-1.13.22-1.36,1.16-1.45,1.18,2.99-.42,3.37,3.15,5.07,4.43,1.1.83,3.06.59,3.92,2.07-4.97,3.76,2.27,6.52,1.01,11.5-2.19-1.8-4.46-5.2-5.83-7.67-.69-1.25-4.67-9.79-4.17-10.33Z"/>
      <path d="M240.99,150l-.99-11c7.45.17,2.63,7.72,2.93,12.49.17,2.77,1.93,4,2.06,6.51l-9.99-9.5c1.28-1.89,5.76,1.78,5.99,1.5Z"/>
      <path d="M61.81,396.82c.61-.92.08-2.66.19-3.82,4.66,2.66,5.12-1.96,7.51-2.99,3.08-1.33-.09,5.14-.73,5.76-.88.86-3.29.89-4.69,1.81-3.68,2.43-6.61,5.76-10.08,8.42-1.27-4.41,6.76-7.58,7.8-9.18Z"/>
      <path d="M98.88,242.93l1.63-2.92,1.44.06.65,2.01,10.39-1.06c1.37,1.16.14,1.9-1.5,1.98-3.08.14-11.39.81-13.75,2.03-1.58.82-1.23,3.67-3.75,2.99,1.32-2.79-2.67-2.86-2-4.49,1.35-3.25,6.2-.11,6.87-.59Z"/>
      <path d="M323.68,148.66c.57-.52,1.21-2.65,1.82-2.65l3.5,4.47c-1.13,2.03-4.3,1.01-5.51,2.5-2.18,2.67,2.72,1.24,1.51,4l-5.99,3.01c.75-2.42.51-7.13,1.48-9.03.58-1.14,2.28-1.47,3.2-2.3Z"/>
      <path d="M482.96,200.95l.05-3.94h-4c-.53-3.76,4.65-3.58,6.07-1.34.8,1.25,1.5,6.2.8,7.22l-13.87,2.11c1.99-3.47,7.39-3.53,10.96-4.05Z"/>
      <path d="M386.84,505.19c.25.16.7,1.99,1.6,2.83,4.7,4.4,7.54-1.54,12.25-2.84,1.32-.36,3.23-.36,2.31,1.3-.72,1.3-9.95,6.7-11.45,6.57-2.56-.23-6.08-5.41-7.54-7.57.11-.93,2.32-.63,2.83-.31Z"/>
      <path d="M380,251c2.58-1.6,7.86,2.16,8.48,2.01,1-.24,1.08-2.78,2.19-3.04,1.36-.33,5.2-.13,6.85.02,1.17.11,4.46.32,4.48,2.01-2.39.12-4.93-.32-7.29.21-6.28,1.4-2.3,6.6-12.48,1.03-1.22-.67-2.82.73-2.22-2.23Z"/>
      <path d="M659,219c5.34-.22,10.05,1.44,13.98-3l.64,2.02c2.95.11,5.94-.18,8.89-.03,1.65.08,2.81.91,1.48,2-2.96-.73-5.94.99-8.53,1.06-1.88.06-3.53-.95-4.97-.9-3.26.12-6.13,1.05-10.02.84-1.63-.09-2.8-.86-1.47-1.99Z"/>
      <path d="M345.99,372l7-1.01c-.51,5.57,2.71,10.26,5,15-1.65,1.64-6.64-6.22-7.22-7.3-1.53-2.87.65-4.48-4.79-3.69v-2.99Z"/>
      <path d="M329,239.99c-5.04-3.55-2.83-4.15,1.51-6.97,1.75,1.18,1.57,3.13,1.5,4.98l4.99-1c-4.67,4.49-9.77,6.09-16,3.98,1.2-3.14,5.34-.94,8-1Z"/>
      <path d="M243,395.98v-1.97s-2.52-.96-2.52-.96c-1.68-2.14,1.23-4.1,3.99-1.01,3.05,3.42,3.36,10.17-1.94,10.58-4.04.31-3.53-6.77.48-6.64Z"/>
      <path d="M377,285c-.68.8-2.02,2.66-2.62,2.86-3.54,1.21-9.61-1.47-11.37-4.85l3.99-2.02c-.84,2.94,1.75,4.27,4.48,4.04s4.87-5.43,7.01-5.03c2.56,1.32-.25,3.55-1.49,5h2s0,3,0,3h-1.99s0-3,0-3Z"/>
      <path d="M422,254h-8s7,4,7,4c-2.22-.31-10.3,1.09-10.99-1.51-1.33-4.99,11.7-8.61,11.99-2.48Z"/>
      <path d="M50,254.01v-3.01c4.65-.86,5.15,3.79,1.28,4.82-1.08.29-2.26-.5-3.36-.26-4,.86-8.57,2.52-12.67,3.19-1.75.29-3.48.37-5.25.24l8.71-3.78c4.59.77,7.31-2.97,11.28-1.21Z"/>
      <path d="M411,550c4.22.05,7.04,5.91,11.03,4.6.38-.12,7.98-5.21,5.96-1.12-1.02,2.07-5.95,4.78-8.41,4.52s-10.02-6.65-8.58-8.01Z"/>
      <path d="M337,271c1.14-1.12,4.57,1.74,5.66,1.86,1.34.15,2.28-1.65,2.85-1.67.51-.02,6.13,4.11,8.53,5.3,1.48.74,2.43-.04,1.95,2.5-3.35,1-7.74-3.41-9.64-3.73-1.01-.17-2.32.71-3.61.53-1.44-.19-8.27-2.31-5.74-4.79Z"/>
      <path d="M461.86,229.86l2.64-4.86c1.06,1.71.02,6.55-1.72,7.31-3.03,1.32-12.92,1.5-15.78-.82,4.41-2.82,9.97-.87,14.86-1.64Z"/>
      <path d="M454,347c-4.74-.34-6.66-3.95-9.64-6.85l-9.35-3.63c4.3-4.36,9.88,2.04,13.9,4.08l5.09,6.4Z"/>
      <path d="M183,321l4.95-8.51c-2.71-2.58-6.87-3.45-7.95-7.48,1.25-1.05,8.05,3.19,9.07,4.42,3.4,4.11-4.6,13.09-6.06,11.57Z"/>
      <path d="M693.99,399c-2.31-1-3.75-3.57-4-6-2.09,1.17-2.84,3.42-4.97.51l4.48-9.49,4.49,14.98Z"/>
      <path d="M672,518c3.82-.18,5.21,4.65,8.99,4l3-5-1.08,8.92c-3.27,2.25-12.27-6.63-10.92-7.92Z"/>
      <path d="M451.12,377.12l5.93-1.69c1.05,5.16,6.72,6.82,7.95,11.57-.6.6-6.45-3.41-7.36-4.13-2.8-2.22-1.5-4.66-6.64-2.87l.11-2.88Z"/>
      <path d="M442,235c-.81.79-7.26-5.23-7.01,0-3.39-3.26-3.39-.66-5.99.52-3.62,1.64-3.35-3.07.24-4.77,3.34-1.58,13.66-1.49,12.75,4.25Z"/>
      <path d="M530.02,520.5c0-3.31,4.21,1.45,5.41,1.46,2.26.02,5.79-2.97,6.56,1.53-2.2,3.72-5.23,2.64-8.47,4.53-1.88-1.07-.52-2.55-1.06-3.92-.4-1.02-2.45-3.15-2.45-3.6Z"/>
      <path d="M317.01,280c3.89,1.04,10.39-1.58,8.03,4.96,4.28,1.31,5.58,2.56,4.97-2.96h2.99s-1.07,6.93-1.07,6.93c-1.36.38-2.66.03-3.95-.39-1.54-.5-9.13-4.52-10.36-5.47s-.51-1.91-.61-3.07Z"/>
      <path d="M394,169l9.06.43.82,5.45-6.32,2.08c-2.31-1.19-1.16-3.53-1.55-5.31-.25-1.16-3.04.02-2.01-2.65ZM399.01,171v3s1.99,0,1.99,0c.65-1.25-1.6-3.48-1.99-3Z"/>
      <path d="M410,445c-2.37,5.83,3.63,7.79,4,12.99-1.81,1.95-5.77-7.79-7-8.49-1.96-1.14-5.43.14-6.98-3,1.58-2.57,3.23-.46,5.39-.55,1.45-.07,2.94-1.29,4.59-.94Z"/>
      <path d="M531.77,188.72c.47-.71.24-1.87.23-2.72h1.99s.17,1.78.17,1.78c3.09,1.14,5.44-1.27,7.83-2.78.22,1.76-.07,2.86-1.44,4.05-3.7,3.2-7.05-.68-5.56,8.95-3-.57-1.4-5-2.12-5.87-.39-.48-3.19-.03-3.85-1.63.54-.98,2.29-1.08,2.76-1.78Z"/>
      <path d="M486.01,262c3.11-.86,1.58,3.09,4.49,3.05,2.4-.03,3.62-2.94,3.56-5.02l2.94-.04.08,4.96,2.9.06c.88,5.56-3.79,7.27-3.99.98-3.99,3.77-13.13,2.4-9.98-4Z"/>
      <path d="M575,269c2.15-2.19,9.29,7.46,7.99,9-4.87-4.1-9.81,1.43-13.99-5.5l6.48,1.51-.48-5Z"/>
      <path d="M292.99,507c-2.01-.4-1.67-2.08-1.99-3.5-.88-3.94-.93-8.12-2.06-12.03l1.56-8.45c2.4.09,1.38,12.14,1.5,14.49.14,2.96,1.76,6.19,1,9.5Z"/>
      <path d="M291.96,460.06l.05,2.93h-5.01c.29,3.28-.53,7.14.2,10.31.11.49,5.32,8.84,1.31,6.69-3.18-1.71-2.81-13.81-3.74-17.27-.33-1.24-2.78-3.76-2.76-4.23.12-2.6,3.35.13,4.55.43,1.75.44,3.67.44,5.38,1.14Z"/>
      <path d="M393,198c6.67,1.76,9.9-3.6,16-2.99l-6.99,5.49c-1.58,1.12-4.64-.09-5.83.69-.54.35-.62,2.18-1.68,2.81-2.41,1.43-1.31-5.18-1.5-6Z"/>
      <path d="M236,113c1.1.11,2.65-.59,2.98.72.22.9-.49,1.53,1.01,1.27l2-2.99-1,14-3.02-.47-.93-1.13c1.72-4.53.1-7.13-1.05-11.39Z"/>
      <path d="M59,285.01l11.94-4.6,2.04,1.08c-2.53.99-.59,4.62-2.5,5.49-2.34,1.07-1.16-2.47-1.49-3l-5.99,2.02c.7,1.92,3.21,2.09.5,3.98-.7-.05-1.08-2.23-1.78-2.76-1.13-.85-3.46.9-2.72-2.22Z"/>
      <path d="M368,254l-12.99-3.99,11.48-4.01c2.93,1.72-.31,2.89-.19,4.51.08,1.04,2.33,1.67,1.71,3.49Z"/>
      <path d="M562.99,150c3.32.27,3.74.5,4.99-2.51-7.37-3.55.69-5.3,1.85-1.79.32.97.06,2.23.19,3.28.38.49,6.48-1.16,6.98,2.01-2.39.13-4.94-.32-7.3.21-3.12.71-6.29,6.36-6.71-1.2Z"/>
      <path d="M235.99,19c.43,6.5.71,12.99.98,19.48.08,2.02-.02,1.6-1.96,1.52.04-1.62-1.47-3.02-1.57-4.46-.18-2.57.22-10.28.52-13.08.16-1.51.21-3.07,2.03-3.46Z"/>
      <path d="M166,366.99h2.99s2,12,2,12l-4.98-3-3.01,3c.05-4.61,4.4-6.85,3-12Z"/>
      <path d="M93.85,143.1c.28.21.46,1.77,1.75,2.77,3.38,2.63,4.57,2.52,8.13,2.35,3.35-.16,3.15,4.65-2.02,3.6-2.96-.6-10.9-5.12-12.71-7.81l4.85-.91Z"/>
      <path d="M407.01,531l7.49,8.99,4.5-2.98c-.27,2.81-2.45,3.97-1,6.99-6.65-.39-10.16-7.04-10.99-12.99Z"/>
      <path d="M453,515c3.24-.71,5.27,3.1,7.72,3.77s7.06-1.21,6.28,2.21c-5.67,3.11-13.3,1.03-13.99-5.98Z"/>
      <path d="M374,366c2.91-.34,3.52,2.95,4.98,4.51,2.26,2.42,2.31,1.75,4.41,5.16.26.43,1.36.32,1.46.46.65.98-.68,2.72-1.36,2.87-.8.18-5.64-4.72-6.33-5.62-1.57-2.05-3.4-4.68-3.16-7.37Z"/>
      <path d="M636.3,169.32c1.33-.92,2.98-1.19,4.21-2.3l1.01,1.99-2.51,2.99,3.99.99-16,2c1.11-2.79,5.12-1.96,7.35-3.17,1.32-.72,1.44-2.15,1.95-2.5Z"/>
      <path d="M630,272c3.88-.92,3.07,2.88,6.25,4.25,2.04.87,3.95.6,5.99,1.01.95.19,3,.38,2.75,1.73-6.23,2.31-15.03,1.11-14.99-6.99Z"/>
      <path d="M494.01,570l8.91,6.57c1.94.52,6.77-5.15,6.09-1.06-.45,2.69-4.43,4.8-7.04,4.08-2.25-.62-9.09-8.33-7.96-9.59Z"/>
      <path d="M475,171l9,4.99c-1.66.24-3.81-.39-5.32-.02-.91.22-.99,1.81-1.7,2.46-2.63,2.38-6.74,1.44-9.97,1.56.68-2.73,6.35-1.19,7.57-2.92l.43-6.07Z"/>
      <path d="M90.01,174c4.37,2.05,5.83-.23,9.48-2.01,2.07,1.03,1.03,3.85,1.68,4.83s5.44.66,5.84,3.16c-4.5.45-6.68.2-8.57-4.04-2.23,1.23-8.69,2.11-8.42-1.95Z"/>
      <path d="M176.33,166.66c3.82,3.64,4.64.2,5.67.76.82.45,4.87,4.63,3.99,5.57-2.84-3.48-3.99-1.86-6.32-2.31-3.25-.62-13.34-13.76-16.67-16.68,1.88-.43,2.37,1.04,3.5,1.99,3.47,2.92,7.14,6.99,9.83,10.66Z"/>
      <path d="M157,301c5.52,1.97,7.08-.89,10.99-4,1.33,1.39-3.91,4.79-4.47,6.02-1.17,2.56-.36,6.42-4.03,7.97s1.63-5.18.5-6c-2.91,2.34-2.17-1.63-2.99-3.99Z"/>
      <path d="M311,428c2.93-.81,1.59,2.16,3.65,2.85,1,.33,2.28.12,3.35.15l-1.02,12c-3.32-1.54-2.29-6.29-3.53-8.96-.79-1.7-3.59-2.68-2.46-6.03Z"/>
      <path d="M299,381.99c2.1-.81,2.95,1.86,2.77,3.36s-2.23,3.31-2.83,5.09c-.96,2.82-.77,6.03-2.44,8.55-4.48-5.71,2.38-11.57,2.5-17Z"/>
      <path d="M711,160.01c.14,1.31-2.27,1.76-3.32,2.17-1.46.57-4.95,1.84-6.24,1.78-1.92-.08-2.32-1.9-3.41-2.39-.99-.45-2.89,1.13-4.01-1.06.05-3.27,14.62.7,16.98-.49Z"/>
      <path d="M276.01,432c1.42-.24,1.39,1.75,1.69,2.79.79,2.73,1.15,5.49,1.77,8.25l3.91.15,1.62,2.79-6.9.9c-1.44-4.82-2.5-9.82-2.09-14.89Z"/>
      <path d="M161.99,313c.21,3.4,1.63,7.09,3.74,9.73.62.77-.09,1.86,2.26,1.28-.6-3.33,2.75-5.43,3.45-7.91.24-.85-.58-2.16,0-3.07.72-1.12,4.85-2.7,5.54-2.02,1.73,1.71-1.74,3.21-1.93,3.74-.32.92-.06,2.16-.6,3.2-1.05,2.05-4.89,4.14-6.05,6.05-.69,1.14,3.48,3.03.08,4.98-2.84-1.57-4.56-3.02-6.02-5.97-1.09-2.2-4.08-9-.5-10.01Z"/>
      <path d="M271,390c2.63-.76,2.38,2.74,3.67,3.03s2.94-.19,4.32-.03c.57,2.23-2.25,2.8-2.81,4.68-.65,2.21.02,4.99-.19,7.31-3.76.7-1.32-5.56-2.18-8.31-.58-1.88-4.06-3.21-2.81-6.68Z"/>
      <path d="M463,530c2.59-.06,4.6,2.26,7.28,1.83,2.92-.46,4.19-4.54,7.71-3.83,1.41,1.33-5.13,6.83-7.55,6.98s-7.7-1.7-7.44-4.98Z"/>
      <path d="M282.39,329.67c.5.56,1.72.01,1.64.85-.12,1.41-1.51,2.11-1.62,2.95-.27,1.99,2.31,5.94,1.58,8.53-4.27-2.13-3.39-8.87-4.54-11.91-.38-1.01-2.44-3.16-2.43-3.6.02-4.41,4.98,2.73,5.37,3.17Z"/>
      <path d="M287,148l5.02-7.48,3.61-3.46,4.36,3.44-3.99-.07c-2.65,2.73-4.36,7.95-8.99,7.56Z"/>
      <path d="M626.73,607.72c.26-.23,4.99-7.24,4.28-2.21-1.01,7.24-9.2,7.39-15.01,6.48-.23-1.45,1.74-1.34,2.78-1.69,2.14-.71,6.42-1.22,7.94-2.57Z"/>
      <path d="M372.01,234c4.13,1.52,8.16.71,12.39,1.1.95.09,4.72.47,4.6,1.89l-17,1v-3.99Z"/>
      <path d="M292,325c4.48.77,3.3,6.92,8.99,4-.24,3.81-3.05,4.35,0,7.99-3.41.95-2.61-2.83-5.99-2,2.14-4.87-2.72-5.54-3.01-9.99Z"/>
      <path d="M412,407c.41-.41,7.8,3.46,9.99,2-1.75,3.5.46,4.77,1,7.99-3,.48-3.36-3.21-5.05-4.44-1.16-.84-3.01-.9-4.34-1.66-1.44-.82-2.38-3.11-1.6-3.89Z"/>
      <path d="M194.03,469.02c1.06.04,2.27-.24,3.3,0,.21.05,3,2.76,2.66,3.48-.72,1.51-3.81,1.39-4.55,2.46-1.08,1.54.14,6.26-1.94,8.05-2.13-1.38-.95-2.22-.84-3.76.25-3.44,1.08-6.8,1.37-10.22Z"/>
      <path d="M510,453c-.25-2.62-2.59-5.7.51-7.99l1.49,4,5.99-1c-.68,5.12-3.48,5.89-8,5,.49,5.09-6.47-.06-2.48-1,.93-.09,1.84.88,2.48,1Z"/>
      <path d="M349,324c-1.1.04-2.4.91-3.58.95-3.78.13-7.18-3.19-7.42-6.95l6.47,4,5.03-2.98c2.82,1.69-.29,3.14-.5,4.98,1.82-.07,5.68.41,6.99,1.51,1.1.93,1.04,2.85,1.96,4.04,1.36,1.75,5.43,2.27,5.04,5.45-5.69-1.26-8.04-7.44-13.56-8.97-.49-.56-.52-1.32-.44-2.03Z"/>
      <path d="M330.01,402l4.34.92c2.95-1.55,1.22-6.08,5.66-4.92-3.59,4.37-.63,5.58,0,9.99l-4,1,.56-3.02c-1.36-1.9-6.99.34-6.55-3.98Z"/>
      <path d="M323,176c.93.94-4.19,6.16-5.02,6.54-1.91.86-1.87-1.59-4.69,1.15-3.41,3.31-4.34.77-1.73-2.64,3.07-4.02,4.28-1.59,6.73-2.23,1.83-.48,2.36-3.31,4.72-2.82Z"/>
      <path d="M618,425c-1.66.25-3.39-.72-4.54-.58-1.21.15-1.71,2.17-3.46,1.58-.03-2.28-.57-4.55,1.49-5.98l4.94,2.05,2.56-2.07c.19,1.77-.66,3.34-1,5,3.58-.55,6.63-5.15,7,4l-3.01-3c-3.47,1.34-1.4,4.3-.99,7-5.65-.96-3.72-4.41-3-8Z"/>
      <path d="M506,137l-.99,3.99,7.49-2c.92,0,.69,1.2.03,2.03-2.58,3.18-9.79,1.65-13.52,1.98-1.35-1.2,6.28-6.75,6.99-5.99Z"/>
      <path d="M458,449c.99-1.01,4.24,2.64,5.02,3.47,3.11,3.33,8.11,8.37,3.46,12.52-3.86.14.8-3.43.07-5.01-1.46-1.54-3.18-2.86-4.54-4.5-.76-.92-4.7-5.78-4.01-6.48Z"/>
      <path d="M351.98,188c-.08,4.02,4.26,3.15,5.54,1.03s-1.06-5.79,2.47-5.03c1.39,4.68.59,7.68-4.32,9.26-4.05,1.3-8.38-2.41-3.69-5.26Z"/>
      <path d="M335,170c1.96-.55,2.58,2.02,4.32,1.85,1.89-.18,5.17-3.24,7.68-2.85-.62,4.24-8.17,4.58-8.82,5.17-.26.24-2.64,8.53-3.17,1.34-.14-1.82.09-3.69,0-5.51Z"/>
      <path d="M362,221.99c-3.1.71-7.42.48-10.27,1.24-2,.53-3.83,4.2-5.72,1.27l6.6-5.3c2.91,1.31,7.84-.49,9.39,2.79Z"/>
      <path d="M623,315.01c1.07-.62,4.35-.22,5.5-2.99l3.5,5.49c-3.38.89-2.1,4.4-4.5,6.49l-.93-6.07-2.87-.93c-1.16.31-.79-1.93-.7-1.98Z"/>
      <path d="M272.01,383v4.99c-2.02,2.2-4.16-5.33-2.53-8.05,3.67-.92,10.87-1.1,5.95,3.98l-3.42-.93Z"/>
      <path d="M391,342l3.99.99-1-2.99c2.13-.48,2.53,2.02,4.49,2.03.42,0,.68-3.33,3.5-2.02-1.78,2.66-.43,4.26,0,6.99-2.83-3.67-10.16.79-10.99-5Z"/>
      <path d="M185,140c3.78-1.09,2.86,2.3,5.01,3.47,1.93,1.05,5.74.42,5.98,4.01-2.34,3.32-4.65-.39-6.98-1.49l-2.01,3,.95-5.4-2.95-3.59Z"/>
      <path d="M631,536.99c-3.71.5-6-3.44-8.63-4.86-1.66-.9-6.28-.72-5.36-2.62,2.42-4.99,12.69,4.69,13.99,7.48Z"/>
      <path d="M411.31,192.24c.15-.21,1.24-.14,1.4-.45.77-1.45.17-3.23.29-4.79l2.93,4.56,4.07.44c-3.08,3.15-5.06.94-4.01,6.99-2.17-.22-1.48-3.18-2.21-3.84-.63-.57-4.88.54-2.47-2.93Z"/>
      <path d="M181,420c-.48,5.42-.97,13.02-4.99,17-.65-3.53,1.29-6.34,1.92-9.57.52-2.66-1.39-7.48,3.06-7.43Z"/>
      <path d="M428.74,559.29c1.15,1.08,5.99,11.86,5.26,12.71-2.66.54-1.71-.66-2.47-1.97-2.01-3.44-2.97-7.02-6.52-9.53l1.49-2.47c.56.71,1.64.7,2.24,1.27Z"/>
      <path d="M349,160c3.33.73,6.5-.84,9.49-1.02,2-.12,1.58.24,1.51,2.01l-6,1.02,2.99,2.01c.1,1.63.47,2.24-1.49,1.99-2.46-.32-6.53-3.18-6.5-6Z"/>
      <path d="M345,436c2.39-.04,4.26,1.8,6.61,1.98,1.38.1,7.51-1.98,7.37.52-.1,1.82-5.62,2.71-7.41,2.48-1.33-.17-8.45-3.31-6.57-4.98Z"/>
      <path d="M175.86,186.81c.52-.37-.56-2.74,1.14-1.31,1.41,1.19,1.46,1.84.01,3.01-3.33,2.07-4.54-1.26-6.65-2.38-3.78-2.01-8.65-3.35-11.37-7.13,2.58-.17,4.21,2.19,6.29,3.2,1.46.71,3.18.64,4.64,1.36s4.24,4.44,5.93,3.24Z"/>
      <path d="M555,531c.77.72-3.28,6.37-4.63,6.88-3.02,1.14-2.95-3.13-5.35-4.38l9.98-2.5Z"/>
      <path d="M385.08,281.07l2.92-.06-1.57,6,6.56,3.99c-3.67,1.75-6.85-.46-9.56-3l1.64-6.93Z"/>
      <path d="M81,306c.98,4.05-2.33,2.94-4.53,4.97-1.48,1.36-2.14,3.79-3.97,5.01-4.23-5.39,3.92-9.21,8.5-9.98Z"/>
      <path d="M641,437c.59-.51,8.12,2.45,9.24,3.06.86.47.82,1.47,1.47,1.92,1.52,1.07,4.73,1.06,4.28,4.01-.58.54-11.41-5.55-13.02-6.52-1.27-.77-2.53.21-1.98-2.47Z"/>
      <path d="M419.31,164.75c.58.42,1.57.1,1.88.3,3.06,1.91,1.39,4.6-2.66,3.97s-2.45-2.75-2.53-4.42c-.07-1.42-2.69.18-2.99-1.09,4.25-4.21,4.76.12,6.3,1.24Z"/>
      <path d="M396,271c4.95.78,6.89-1.16,7.01-6l2.93,1.63c.59,2.07-2.71,6.71-4.64,7.24-1.66.46-6.18-.19-5.29-2.87Z"/>
      <path d="M449,154c.96-3.86,1.04-4.91,6-5l-3.99,5.54c-.76.64-1.51-.45-2.01-.55-1.58,6.32.27,6.3,4,10.99-3.78.36-6.51-3.64-7.77-6.72-2.14-5.26-1.19-5.22,3.77-4.27Z"/>
      <path d="M233,451l2.98.02c-.87,3.28,2.59,2.36,2.06,5.46-.62,3.63-3.47,1.74-4.84,2.78-.61.46.45,2.14-1.19,1.73-1.14-4.02,2.27-6.51.99-9.99Z"/>
      <path d="M73.71,224.66c.36-.25.23-1.64.92-1.71,1.33,1.26,8.43-.7,8.35,1.55-.07,1.83-7.99,1.43-9.65,3.17-1.73-.46-4.72.79-5.34-1.66,1.57-.61,4.55-.55,5.71-1.35Z"/>
      <path d="M232.99,479c-3.92-1.74-1.22-5.95-1.08-8.61s-1.71-5.82,1.59-8.37c2.38,1.51.86,2.23.79,3.76-.21,4.46-1.37,8.76-1.29,13.23Z"/>
      <path d="M606.22,176.2c1.24-1.01,6.35-1.3,8.19-1.13,1.7.15,4.35.66,3.58,2.93-4.36-.11-7.76-.59-11.47,2.01-1.65-.66-1.38-2.93-.3-3.81Z"/>
      <path d="M229,64c5.24-.06,10.73-1.08,14,3.99-1.48-.39-17.53-.81-14-3.99Z"/>
      <path d="M578,225.98l-1.53-2.98,5.53-2c.93,4.98-2.03,8.02-6.99,7.99l3-3.01Z"/>
      <path d="M325.01,303l5.05.45c.37,3.2,2.31,4.07,3.95,6.54-2.11.83-4.03-2.14-5.33-1.87-1.22.25-1.77,2.46-3.67,1.87v-6.99Z"/>
      <path d="M473.31,463.25c.17-.31,2.66-.64,1.7-3.26,3.95.16,3.61,3.17,1.18,5.52,1.47,1.77,3.35,2.77,2.81,5.49-3.19-1.79-8.19-3.17-5.69-7.75Z"/>
      <path d="M423,380c1.57-1.48,8.41,4.65,9.69,5.8,1.09.97,2.81.99,2.3,3.19-1.06.97-8.62-4.41-9.91-5.58-1.11-1.01-2.5-1.5-2.08-3.41Z"/>
      <path d="M253,338l-4.5-1.98-3.49,2.98,1.95-6.57c3.79-1.15,6.92,1.55,6.05,5.57Z"/>
      <path d="M525.01,333h-3.02c2.56,3.82,2.27,6.97-2.99,6,3.25-3.19.32-3.04-.03-5.53-.65-4.55,6.09-4.96,6.04-.47Z"/>
      <path d="M540,427v3.99s6-1.99,6-1.99c.93.87-2.95,6.59-7,4.52-2.61-1.33-3.33-6.52,1-6.52Z"/>
      <path d="M485,557c1.9.06,3.43,1.3,5.45,1.05,2.41-.3,3.35-3.41,5.04-3.05l1.51,2.98c-4.27,2.14-10.08,5.83-11.99-.98Z"/>
      <path d="M146.99,186c.85,6.11-4.18,9.51-7.99,4.01l5-1-5.99-1.02,8.99-1.99Z"/>
      <path d="M442,387c.29,4.16-4.79,5.82-2,9.99l-2.88-.11c-3.29-4.65-.42-9.02,4.87-9.87Z"/>
      <path d="M83.68,245.62c.36-.24.2-1.61.87-1.67,1.42-.13,7.11,2.54,5.45,4.05-4.57-1.55-8.1,2.63-13,2,1.25-2.54,4.45-2.92,6.68-4.38Z"/>
      <path d="M477.08,254.07l2.91-.06c.03,4.65-3.04,7.07-1,11.99-2.6.47-1.76-.47-2.45-2-1.93-4.32-.98-5.64.53-9.93Z"/>
      <path d="M615.99,217c.1,1.53,1.1,2.84,1.01,4.43-.1,1.74-4.99,11.49-7,9.56l5.99-13.99Z"/>
      <path d="M570.23,491.23c.58-.63,2.57-1.56,3.29-.24.75,1.39-.48,2.26-.28,3.38.23,1.29,3.6,3.61,3.77,5.62-1.03.89-10.6-4.63-6.77-8.76Z"/>
      <path d="M330,333c2.16-.31,3.4,1.96,5.5,1.96,1.65,0,7.41-4.47,5.47.51-1.59,4.07-10.95,2.75-10.97-2.47Z"/>
      <path d="M340.99,195.01l-2.73,1.74-9.26,3.24.43-4.06c.92-1.35,9.18-1.5,11.56-.93Z"/>
      <path d="M426,158l3.07.61c.27.93.45,2.03,1.01,2.82,1.24,1.77,3.56.84,2.92,3.57l-6.53.05-.47-7.05Z"/>
      <path d="M210.99,430c.7,5.02-2.66,3.3-5.36,4.15-2.02.64-.7,3.67-3.63,2.84-.54-6.76,3.91-6.57,8.99-6.99Z"/>
      <path d="M478.82,319.8c.82-.54.6-3.53,3.17-2.8,1.54,7.7-5.57,7.55-9.99,3.49,1.53-1.38,5.35.28,6.82-.69Z"/>
      <path d="M129.01,301l3.01.48.98,3.51c-2.23-1.24-9.61,6.46-9.99,6.01-.78-5.34,6.72-4.67,6-10Z"/>
      <path d="M335.02,221.02l6.96,1.01-.99,4.97-2-3c-.47-.58-6.25,7.94-3.97-2.98Z"/>
      <path d="M234,76c6.49-.52,10.22.79,9,8l-2.02-4.97-6.97-.04v-2.99Z"/>
      <path d="M224,285c.85-.93,5.38,2.95,5,4.48-.86,1.2-2.54,1.48-3.47,2.55-1.2,1.38-.84,3.86-2.53,3.96l1-10.99Z"/>
      <path d="M240.02,161.04c4.25-1.94,8.2.08,5.05,4.35-.78,1.05-3.62-.04-3.08,2.6-2.75-.9-1.3-4.73-1.97-6.96Z"/>
      <path d="M490.18,198.8c1.31.87,7.08-.74,7.82,2.19-3.07,1.26-12.49,2.06-10.99-3.48.99-3.66,2.97,1.16,3.17,1.29Z"/>
      <polygon points="485 325 488 325 485.98 322.5 487.48 320.1 491.99 322.54 488.36 327.83 485.56 326.99 485 325"/>
      <polygon points="322 319 329.09 320.48 332 328 324.49 322.01 322 319"/>
      <path d="M164,203.99c.54-2.06,1.42-1.65,2.98-1.57,1.8.09,11,.46,11,2.08-3.41,3.33-9.85-.23-13.98-.51Z"/>
      <path d="M196,458l-1,6.99h4c.39,3.57-3.88,3.59-5.78,1.76-1.34-1.28-.93-9.43,2.78-8.76Z"/>
      <path d="M343,358c-1.05,3.37-2.84,4.13-1,7.99-2.52,1.3-5.4-3.23-4.91-5.31.54-2.26,3.8-3.07,5.91-2.68Z"/>
      <path d="M290.01,68l3.42,1.08c.35-1.57,2.42-3.19,3.56-2.08.45.44-3.04,8.83-4.5,8.98-2.44-1.42-.25-2.66-.65-4.25-.34-1.37-2.38-1.87-1.84-3.74Z"/>
      <path d="M411.01,233.02c4.45-2.6,4.71-1.5,8.97.56,1.44.7,2.53-.27,2.02,2.42l-10.49-.99-.5-1.99Z"/>
      <path d="M655,388v-6c2.22-2.6,3.01,5.12,1.08,7.57s-4.53.97-7.08.41c.47-3,5.48-1.55,6-1.99Z"/>
      <path d="M654,216h3c-2.05,5.54,2.25,4.89,5,8-6.26.48-9.06-1.47-8-8Z"/>
      <path d="M355,435c-2.6.6-1.72-.77-2.56-1.9-1.05-1.41-2.46-3.29-3.23-4.81-.54-1.08-1.89-2.9.31-3.29,2.38-.42,6.26,9.12,5.48,9.99Z"/>
      <path d="M734,411c-.42,2.98.19,4.75,2,7-3.26.55-5.23-1.04-6.93-3.62-.42-1.93,3.19-4,4.92-3.37Z"/>
      <path d="M588,141.01l13.99-2c.03,1.42-3.09,1.97-4.21,2.28-2.19.61-5.17,1.35-7.38,1.63s-2.76.55-2.4-1.9Z"/>
      <path d="M322,180c9.1.94,3.11,6.84-2,9-.6-2.3,2.52-3.03,2.8-4.62.21-1.19-1.14-2.91-.8-4.38Z"/>
      <path d="M298.02,56.51c0-.62,5.23-9.3,6.48-10.49,2.53,1.91.76,1.58.06,3.04-1.19,2.48-2.19,6.35-4.04,7.97-1.43,1.25-2.49.18-2.5-.52Z"/>
      <path d="M661,452.01c3.96.01,5.04-1.99,6-5.32.34-1.18,2.83-.84,2.99-.69.73.71-1.74,5.51-3.01,6.48-1.55,1.19-6.79,3.3-5.99-.48Z"/>
      <path d="M670.02,451.01c.51-.34,2.26-.04,3.02.47,1.43.96.12,2.72.5,3.56.77,1.67,3.95,1.89,4.46,3.95-3.86.57-5.65-3.12-8.93-4.11l.95-3.87Z"/>
      <path d="M494,483c5.15.05,6.58,3.6,4.99,8-2.82-1.58-5.27-4.57-4.99-8Z"/>
      <path d="M555,540l3.86.14c.17,3.99,5.7,5.53,6.13,9.85-.36.41-7.52-6.08-8.44-7.01s-1.95-1.27-1.55-2.99Z"/>
      <path d="M577,265c.46-.47,6.61,1.37,7.79,1.75,1.68.54,2.66-.49,2.2,2.25-3.59-.22-11.11,1.38-9.99-3.99Z"/>
      <path d="M220,356.99l2.94.04,2.05,6.96c-2.07.23-4.03-.63-5.54-1.95l.55-5.05Z"/>
      <path d="M327.27,98.23l5.73-4.22c.56.63-2.73,10.82-6,7.49l.27-3.27Z"/>
      <polygon points="312.01 202.03 318 201 316.99 208 314.99 204 312.01 205 312.01 202.03"/>
      <path d="M379.18,202.81c1.54.97,4.6-1.27,3.82,2.19-3.47-.89-5.06,1.32-8,2-.49-.52.92-5.04,1.48-6.02,1.45-2.54,2.2,1.52,2.7,1.83Z"/>
      <path d="M198,169c3.44,1.16,9.96,3.14,5.5,6.98-3.04-2.39-6.03-1.95-5.5-6.98Z"/>
      <path d="M282,212.01l9.99-2c.4,2.29-.98,2.29-2.53,2.96-2.81,1.21-7.71,3.54-7.46-.95Z"/>
      <path d="M213.01,373c3.71-1.09,1.17,4.3,2.07,4.96l2.92.05v2.99c-6.26.46-6.48-2.87-4.99-8Z"/>
      <path d="M386,179.01l-6.71,2.76c-1.24.9-4.3-.24-4.27-1.27.01-.43,6.14-3.12,6.5-3.15,1.12-.07,2.93,1.89,4.48,1.66Z"/>
      <path d="M317.04,331.05c1.75.09,4.84-2.09,5.95.47.85,1.95-1.91,1.56-2.5,2.42-.49.72,1.04,3.09-1,4.07-1.43-2.06-3.03-4.29-2.46-6.95Z"/>
      <path d="M325,102l-5.5,8.98c-4.16-2.57,3.79-10.65,5.5-8.98Z"/>
      <path d="M100,98.01c1.36-1.36,4.8,3.93,5.97,4.43,1.04.44,2.88-1.12,4.02,1.07l-4,2.05c-2.24-2.33-4.85-4.4-5.98-7.54Z"/>
      <path d="M391.02,85.03l7.97-3.03c-.39,3.59-5.32,3.69-5,8-2.06,1.6-3.28-3.45-2.97-4.97Z"/>
      <path d="M303.72,121.75c1.04-1.13.7-2.96,1.78-3.74l3.5,6.99-8-1c.04-1.5,2.07-1.55,2.72-2.25Z"/>
      <path d="M384.11,137.12c1.05-.93,6.75-.23,5.89,2.87l-3.87-.94c.12,1.46-3.89,6.14-5.12,4.93-.36-2.04,1.51-2.62,2.44-4.1.52-.83.4-2.55.66-2.78Z"/>
      <path d="M403,497c1.05,2.42-1.67,6.57-4,5.55-4.48-1.96.11-6.82,4-5.55Z"/>
      <path d="M411,73.01c-1.12,1.75-7.98,9.73-10,7.98,1.45-4.03,5.83-7.07,10-7.98Z"/>
      <path d="M154.01,339.01c2.68.56,7.85-10.99,9.99-9.01-1.31,2.47-3.19,5.39-5.02,7.47-1.29,1.47-5.31,6.22-4.97,1.53Z"/>
      <path d="M536,338.01c.35,2.45-.24,2.18-2.41,1.91-1.47-.18-7.06-.98-6.59-3.41.77-3.95,7.08,2.4,9,1.5Z"/>
      <path d="M228.75,179.26c.56.58,2.66,5.31,2.24,5.74-2.07.28-7.02-4.11-6.98-5.5.06-1.81,3.53-1.48,4.73-.24Z"/>
      <path d="M357.01,235.93l6.99,1.56c-3.96,4.03-12.54-.5-7.5-5.48l.51,3.92Z"/>
      <path d="M168.13,259.14c1.48-.43,3.29-1.99,4.41-.14l-.44,4.53-4.09.47.13-4.86Z"/>
      <path d="M193.08,378.06c.88-.58,3.2-.72,2.92,1.42-.2,1.51-1.18,3.75-1.76,5.31s.59,2.7-2.23,2.21c-.19-1.65.07-8.27,1.08-8.93Z"/>
      <path d="M379,214h2.99c.34,3.74.33,8.09-4.48,7.99-2.66-2.01-.71-2.72,1.49-2.52l.95-1.02-.96-4.46Z"/>
      <path d="M239.01,375l5.99,8c-6.84.99-6.3-2.29-5.99-8Z"/>
      <path d="M578,454c1.32-1.32,10.43,5.49,8.99,7l-8.3-4-.69-2.99Z"/>
      <path d="M444,492c1.31,2.37-4.97,8.11-5.99,6.99-.14-3.45,2.06-7.56,5.99-6.99Z"/>
      <path d="M398,314.99h2.99c.27,3.51-.23,8.68-4.99,8,.69-2.93,2.87-4.54,2-8Z"/>
      <path d="M307,311c.1,1.6-.47,3.11-.89,4.62-.2.71.35,3.38-1.6,2.37-3.76-1.96-2.62-7.79,2.49-6.99Z"/>
      <path d="M372.01,148l1.49-9.98c3.83,3.3,2.67,7.67-1.49,9.98Z"/>
      <polygon points="338 139.99 331.64 141.93 329.02 138.49 331.97 137.54 338 139.99"/>
      <path d="M345,84c-.17,4.69-6.99,3.76-8.98.5l8.98-.5Z"/>
      <path d="M307,111c4.45,0,9.31-.66,7.99,5-1.86-1.2-4-1.68-5.99-2.55-1.55-.68-2.46.14-2-2.44Z"/>
      <path d="M267.14,174.15c7.14-1.3,2.51,2.76.14,5.61-.88,1.06-2.18,2.31-3.28,1.24-.85-.83,3.28-5.15,3.14-6.85Z"/>
      <path d="M663,322.01c.55,4.4-6.75.76-9,.99.39-5.68,5.45-.64,9-.99Z"/>
      <path d="M441.02,395.5c-.13-1.57,8.24-2.42,6.98,1.99-.97,3.4-6.88-.91-6.98-1.99Z"/>
      <path d="M452.98,398l-2.94-.02c-2.42-7.1,6.45-10.24,2.94.02Z"/>
      <path d="M487,401.99l-3.04-.45c-1.7-1.15-1.27-6.16.56-6.54,3.69-.77,1.24,5.55,2.49,6.99Z"/>
      <path d="M745,484c.94,1.81-3.71,8.47-4.99,6.99.18-2.96.71-7.86,4.99-6.99Z"/>
      <path d="M289.33,318.36c-.68.63.27,2.35-2.33,1.64v-5.54c1.8-.13,3.76-.83,4.99,1.05.36,1.72-1.68,1.95-2.67,2.85Z"/>
      <path d="M586.99,498c-3.57.74-3.98-5.3-1.47-5.99,4.69-1.29,2.96,3.58,1.47,5.99Z"/>
      <path d="M89,274.01c1.78-.13,3.3-.95,4.9-1.62.79-.32,2.67-2.46,3.09.12.63,3.84-10.84,4.81-7.99,1.5Z"/>
      <path d="M405,345c.63-.7,8.02,3.98,5.99,5.99-3.66-.2-7.1-1.87-5.99-5.99Z"/>
      <path d="M479.01,150.02l3.63-3.11,4.36,1.1c.42,2.61-.27,1.54-1.43,2.06-1.59.71-4.54,2.06-6.06,1.94l-.5-1.99Z"/>
      <path d="M315.07,237.08l6.93-2.07c-1.35,3.38-2.98,5.7-7,4.99l.06-2.92Z"/>
      <path d="M515,226c1.13,1.02-3.89,6.12-4.99,4.99l.95-2.92-2.95-2.07h7Z"/>
      <polygon points="375.13 478.13 381 477 380.94 479.93 375 482 375.13 478.13"/>
      <path d="M333,251c4.37-.66,4.26,2.54,3.99,5.99l-3.86-1.13-.13-4.86Z"/>
      <path d="M647,319c4.37-.66,4.26,2.54,3.99,5.99l-3.86-1.13-.13-4.86Z"/>
      <path d="M403,319c.82-.85,9.61,4.52,7.99,5.99-2.39-.62-4.24-1.89-6.73-2.76-2.15-.75-1.19-1.3-1.26-3.23Z"/>
      <polygon points="559 227.01 558.54 231.98 555 233 555.48 227.97 559 227.01"/>
      <path d="M158.02,480.5c.47-2.41,8.09-3.01,7.97-1-.07,1.14-6.83,3.98-7.97,1Z"/>
      <path d="M369,206.99l-5.49,1.02c-2.64-4.43,5.69-5.98,5.49-1.02Z"/>
      <path d="M718,400.99c5.59-1.24,2.81,6.28-.51,6.99l.51-6.99Z"/>
      <path d="M303,289c-1,.99-8.6-5.22-9-6.99,2.03.53,5.36,2.32,6.95,3.54,1.2.93,2.39,1.7,2.05,3.44Z"/>
      <path d="M288,192c3.65-1.03,3.85,2.05,6.99,2.49l-4.54,2.29-2.45-4.78Z"/>
      <path d="M689,330c2.05-.25,3.87.18,5.82.72,1.77.49,2.61-.35,2.18,2.27-2.83-.19-8.02,1.39-7.99-2.99Z"/>
      <polygon points="92 196 91.99 199 80.01 196.99 92 196"/>
      <path d="M197,312c-.87.74.34,5.44-4,4,.12-2.78,1.04-4.68,4-4l-2-7c2.97-.67,4.95,5.49,3.82,6.87-.36.44-1.65-.02-1.83.13Z"/>
      <path d="M565.01,221c1.81-.09,2.1-.48,2.01,1.51-.15,3.4-1.38,5.44-5.02,5.48l3.01-6.99Z"/>
      <path d="M104,353c-.38-1.81,1.29-6.44,3.48-5.99,4.12.84-2.17,7.32-3.48,5.99Z"/>
      <path d="M344,335l3.9.1,1.09,5.9c-2.27-1.59-5.76-2.51-4.99-6Z"/>
      <path d="M578.99,188l-3.81-6.68.32-3.3c1.54.15,4.05,8.1,3.49,9.98Z"/>
      <path d="M551,434c.3,1.95-.66,3.42-1.5,5.03-.75,1.44.08,2.45-2.49,1.96-.41-3.14.11-6.91,3.99-6.99Z"/>
      <polygon points="312.13 276.11 314.56 273.97 317.99 275.5 315.46 279.05 312.13 276.11"/>
      <path d="M249,313c5.33-.46,4.72,4.69.49,6l-.49-6Z"/>
      <path d="M269.02,192.02c2.83.53,2.5-.51,3.61-1.89,1.22-1.51,2.2-.54,2.36.39.41,2.26-7.67,7.76-5.98,1.5Z"/>
      <path d="M191,483.99c3.82-.93,1.25,5.37.69,7.21-.31,1.04-.26,3.02-1.69,2.79l1-10Z"/>
      <path d="M691,461c.94-.8,7.59,2.03,8,3.99-2.65-.05-8.02-.25-8-3.99Z"/>
      <path d="M613,594.01c-.95,2.57-.38,3.77,1,5.99-5.49.22-6.87-5.05-1-5.99Z"/>
      <path d="M370,249c5.71-.42,4.5,4.35.49,5.99l-.49-5.99Z"/>
      <path d="M222,165.01c3.46-1.24,6.42-1.94,5.99,2.99-1.66-.94-6.76.19-5.99-2.99Z"/>
      <path d="M512,191.99c2.59-.36,1.55.18,2.07,1.43,1.68,4.05.3,4.91-4.07,4.57l2-6Z"/>
      <path d="M186,507c1.93-.08,2.02-.47,2.03,1.52.01,2.29-.6,6.44-3.03,7.48l1-9Z"/>
      <path d="M54,321c.14,3.98-4.2,2.98-7,2.99,1.2-3.08,4-3.31,7-2.99Z"/>
      <path d="M508,163c2.33-.6,2.22,1.53,3.15,2.38,1.5,1.36,3.35,1.36,2.84,3.61-3.07-.25-6.6-2.49-5.99-5.99Z"/>
      <path d="M84.01,442c3.71-1.03.84,4.03.03,5.54-.76,1.4-.83,2.9-3.03,2.46l3.01-8Z"/>
      <path d="M709,531c.91,3.08-2.56,4.56-4.99,4.99l4.99-4.99Z"/>
      <path d="M387.01,198c3.07-.74,2.13,2.29,1.72,4.27-.57,2.77-.78,3.12-3.73,2.72l2.01-6.99Z"/>
      <path d="M339,90.99c-3.2.08-6.19-1.97-7-4.98,1.66-1.44,6.43,3.36,7,4.98Z"/>
      <path d="M265.99,135c-.19,2.83,1.39,8.02-2.99,7.99.9-2.43.27-6.78,2.99-7.99Z"/>
      <path d="M468,411c.54.53.03,4.5-1.49,4.98-2.18-1.23-3.57-1.01-2.02-4,.39-1.04,3.14-1.35,3.52-.98Z"/>
      <path d="M701.01,393c2.19-2.01,3.14,5.24,2.99,5.99-3.82-.28-4.36-2.94-2.99-5.99Z"/>
      <path d="M112.01,148h2.98s0,5,0,5h-2.98c-.6-1.87-.6-3.14,0-5Z"/>
      <path d="M219,314c.6.89-.24,3.43-1.51,3.99-1.88.82-1.95-2.98-3.47-3.49.59-2.18,4.77-.81,4.98-.49Z"/>
      <path d="M239.01,275c3.14-.24,3.24,2.57,2.99,5h-3.99s1-5,1-5Z"/>
      <path d="M190,337v4.99s-5-1.01-5-1.01c.25-1.2,4.07-5,5-3.99Z"/>
      <path d="M352,122c.83,2.34-5.12,5.81-5.99,4.99-.83-2.34,5.12-5.81,5.99-4.99Z"/>
      <path d="M232,274c.58.53-1.44,5.38-3.48,4.99-3.34-.63,1.33-6.96,3.48-4.99Z"/>
      <path d="M399,233c2.64-.41,5.15,1.41,4.99,3.99l-4.02-.47-.97-3.52Z"/>
      <path d="M218,366c4.15-.19,2.2,4.55,2.99,6.99-2.9.48-1.64-.64-2.1-2.34-.42-1.52-1-3.04-.89-4.65Z"/>
      <path d="M337,314l4-.56c4.36,6.63-6.28,2.77-4,.56Z"/>
      <path d="M324.17,223.19c.67-.44,1.9-.21,2.77-.12l1.07,2.92-4.51,2c-2.38-.54.31-4.56.67-4.8Z"/>
      <path d="M561,185.01c2.12.34,7.68-3.24,7.01.98-2.12-.34-7.68,3.24-7.01-.98Z"/>
      <path d="M345.14,366.14l3.86-.13-3.5,4.98c-2.33-1.51-1.1-2.84-.36-4.85Z"/>
      <path d="M405,132.01c-1.22,2.58-4.16,4.2-7,3.98,1.22-2.58,4.16-4.2,7-3.98Z"/>
      <path d="M594,223.01v1.98c-3.15.41-7.86-.26-4.48-3l4.48,1.02Z"/>
      <path d="M251,331h-3.99c-.48-5.28,4.45-5.32,3.99,0Z"/>
      <path d="M363,407c8.34-.81,4.32,6.86.47,2.02-.59-.74-.58-1.12-.47-2.02Z"/>
      <polygon points="253 165 252 169.33 249 170 253 165"/>
      <polygon points="528 420 530.91 420.07 532 424 528 424 528 420"/>
      <path d="M579,180c3.58-.2,3.13,3.39,2.99,5.99-1.95,2.25-3.26-5.22-2.99-5.99Z"/>
      <path d="M624,597l-.59,3.06-4.41.93c-.93-2.13,4.31-4.7,4.99-3.99Z"/>
      <path d="M495,441c-.57-.55,1.42-5.34,3.48-4.99,3.56.6-2.31,6.12-3.48,4.99Z"/>
      <path d="M186,420h-3.99c-.48-5.28,4.45-5.32,3.99,0Z"/>
      <path d="M250.99,320l1,3.99h-3.99c-.38-2.4.47-4.23,2.99-3.99Z"/>
      <path d="M188,229c.29,2.99-2.35,3.27-4.99,2.99-.29-2.99,2.35-3.27,4.99-2.99Z"/>
      <polygon points="544 296 547 296 545.99 301 544 301 544 296"/>
      <polygon points="746 487 749 487 747.99 492 746 492 746 487"/>
      <polygon points="296.09 300.08 298.5 300 299.02 302.5 295.01 305 296.09 300.08"/>
      <path d="M582,141l2.51-.95,2.49,3.94c-2.64.27-5.29,0-5-2.99Z"/>
      <path d="M488.99,146l7.01-1c-.61,2.35-7.79,5.18-7.01,1Z"/>
      <path d="M81,276.01l7-1c-.04,2.27-9.59,4.22-7,1Z"/>
      <path d="M259,298c2.99-.29,3.27,2.35,2.99,4.99-2.99.29-3.27-2.35-2.99-4.99Z"/>
      <path d="M592,179l6.99.99c-1.98.27-7.72,3.05-6.99-.99Z"/>
      <path d="M130,373c.57.58-2.61,6.61-3.99,4.99-.43-2.48,1.24-5.09,3.99-4.99Z"/>
      <rect x="341" y="413" width="4" height="2.99"/>
      <path d="M641,546l3.02.48c3.46,5.43-2.67,4.07-3.02-.48Z"/>
      <polygon points="195 483 200 485.01 198.5 488 195 483"/>
      <path d="M91,421.49c-.54-2.45,3.47-3.33,3.99-.98s-3.47,3.33-3.99.98Z"/>
      <path d="M332,391v3.99c-1.89.39-2.69-1.29-3.98-2.5,1.07-1.55,2.14-1.73,3.98-1.5Z"/>
      <path d="M626,370h-3.99c-.23-1.84-.05-2.91,1.5-3.98,1.21,1.29,2.88,2.09,2.5,3.98Z"/>
      <path d="M372.01,216c4.22-.6,1.52,5.49-1,6l1-6Z"/>
      <path d="M419,384c3.64,0,2.97,2.22,1.99,4.99h-1.99s0-4.99,0-4.99Z"/>
      <polygon points="363 184.01 367.99 183 368 186 363 186 363 184.01"/>
      <path d="M238,106c2.97-.29,3.29,2.36,2.99,4.99h-1.98s-1.01-4.99-1.01-4.99Z"/>
      <path d="M269.01,125c4.52-1.13-.14,6.1-.51,5.99-2.91-.87.93-4.69.51-5.99Z"/>
      <path d="M366,155.01c.24,1.61-1.79,1-3.01,1.47-1.41.55-2.31,1.83-3.98,1.52-.14-3.97,4.2-3,6.99-2.99Z"/>
      <path d="M488,481.49c-.54-2.45,3.47-3.33,3.99-.98s-3.47,3.33-3.99.98Z"/>
      <polygon points="356.01 297.49 357.5 294.02 358.99 297.49 357.5 298.98 356.01 297.49"/>
      <path d="M365.99,297.01l1.01,2.98c-2.11.11-3.74.4-4.98-1.49,1.06-1.53,2.15-1.75,3.97-1.49Z"/>
      <path d="M493,167h4.99v1.99c-1.87.63-3.12.63-4.99,0v-1.99Z"/>
      <path d="M111.01,154h4.99s0,2.99,0,2.99c-1.63-.65-5.77-.06-4.99-2.99Z"/>
      <path d="M596,574h3.99s0,2.99,0,2.99c-2.4.38-4.24-.47-3.99-2.99Z"/>
      <path d="M683,283.99h-5c.26-4.31,3.45-3.44,5,0Z"/>
      <path d="M556,438c1.13,1.13-3.24,5.8-3.99,2.48-.48-2.1,3.26-3.21,3.99-2.48Z"/>
      <path d="M557,440h2.99c.38,2.4-.47,4.24-2.99,3.99v-3.99Z"/>
      <path d="M586,180.01l5-1c.29,2.99-2.39,3.29-4.99,2.99v-1.99Z"/>
      <path d="M239,299v1.99s-4.99,1-4.99,1c-.3-2.97,2.36-3.29,4.99-2.99Z"/>
      <path d="M447,510c-.09-.09-.15-2.06,0-2.49,1-2.79,3.98.46,3.98.99,0,1.03-3.36,2.11-3.98,1.5Z"/>
      <path d="M280,438c2.29-2.29,5.91,3.98,2.5,3.98-.48,0-3.31-3.16-2.5-3.98Z"/>
      <path d="M282.01,449c3.19,1.01,3.42,1.54,2.99,5h-1.98s-1-5-1-5Z"/>
      <path d="M643,318v3.99s-2.99,0-2.99,0c-.38-2.4.47-4.24,2.99-3.99Z"/>
      <path d="M283,89h4.99v1.99c-1.87.63-3.12.63-4.99,0v-1.99Z"/>
      <path d="M523,162l2.91.07,1.08,3.92c-1.84.66-4.9-3.08-3.99-3.99Z"/>
      <path d="M285,239c1.96-.12,4.38-.3,5,1.99l-3.37.92c-1.27-.67-1.91-1.47-1.62-2.91Z"/>
      <path d="M565,347h2.99s0,3.99,0,3.99c-2.52.25-3.37-1.59-2.99-3.99Z"/>
      <path d="M363,114.01l-3.5,3.98-1.48-1.48c1.37-1.68,2.64-2.9,4.98-2.49Z"/>
      <path d="M254,201v3.99c-3.98-.03-3.93-3.99,0-3.99Z"/>
      <path d="M369,308h3.99c-.03,3.98-3.99,3.93-3.99,0Z"/>
      <path d="M386,266v2.99c-5,.37-5-3.37,0-2.99Z"/>
      <polygon points="127 281 131 281 131 282.99 127 284 127 281"/>
      <path d="M114,399c.38,2.4-.47,4.24-2.99,3.99-.38-2.4.47-4.24,2.99-3.99Z"/>
      <path d="M425,387c.38,2.4-.47,4.24-2.99,3.99-.38-2.4.47-4.24,2.99-3.99Z"/>
      <path d="M665,382c2.4-.38,4.24.47,3.99,2.99-2.4.38-4.24-.47-3.99-2.99Z"/>
      <path d="M318,291.01v2.99c-.91.9-5.8-2.62-2.5-3.98l2.5.99Z"/>
      <path d="M524,225c.25,2.52-1.59,3.37-3.99,2.99-.25-2.52,1.59-3.37,3.99-2.99Z"/>
      <path d="M412,124.02l5-2.01c-.76,1.82-5.45,6.71-5,2.01Z"/>
      <path d="M553,469c3.54-.53,5.58,2.16,1.51,2.99-1.07-.91-1.83-1.51-1.51-2.99Z"/>
      <path d="M419,355c1.59-1.59,4.58,1.41,2.99,2.99s-4.58-1.41-2.99-2.99Z"/>
      <path d="M90,424c-.99-.07-2.01.05-3,0-.31-1.87,1.12-3.3,2.99-2.99-.02.99.06,2,0,3,.99.07,2.01-.05,3,0l-1.51,2.99c-3.79-.62-1.53-2.16-1.49-3Z"/>
      <path d="M408,399c.32,1.48-.44,2.08-1.51,2.99-4.07-.84-2.03-3.52,1.51-2.99Z"/>
      <path d="M665,279c3.54-.53,5.58,2.16,1.51,2.99-1.07-.91-1.83-1.51-1.51-2.99Z"/>
      <path d="M286,251c1.48-.32,2.08.44,2.99,1.51-.84,4.07-3.52,2.03-2.99-1.51Z"/>
      <path d="M655,377h1.99s.99,2.5.99,2.5c-.9,1.07-1.51,1.81-2.98,1.49v-3.99Z"/>
      <path d="M763,497c-3.54.53-5.58-2.16-1.51-2.99,1.07.91,1.83,1.51,1.51,2.99Z"/>
      <path d="M713,337c1.59-1.59,4.58,1.41,2.99,2.99s-4.58-1.41-2.99-2.99Z"/>
      <path d="M568,562c1.59-1.59,4.58,1.41,2.99,2.99s-4.58-1.41-2.99-2.99Z"/>
      <path d="M388,406c1.59-1.59,4.58,1.41,2.99,2.99s-4.58-1.41-2.99-2.99Z"/>
      <path d="M575,558c-.53-3.54,2.16-5.58,2.99-1.51-.91,1.07-1.51,1.83-2.99,1.51Z"/>
      <path d="M524,191c1.59-1.59,4.58,1.41,2.99,2.99s-4.58-1.41-2.99-2.99Z"/>
      <path d="M496,568l2.89.1,1.11,2.89c-2.4.39-4.24-.47-4-2.99Z"/>
      <path d="M346,311c1.59-1.59,4.58,1.41,2.99,2.99s-4.58-1.41-2.99-2.99Z"/>
      <path d="M186,192c1.59-1.59,4.58,1.41,2.99,2.99s-4.58-1.41-2.99-2.99Z"/>
      <path d="M617,520.01l3.99-1.01c.25,2.52-1.59,3.37-3.99,2.99v-1.98Z"/>
      <path d="M296,516c.32,1.48-.44,2.08-1.51,2.99-4.07-.84-2.03-3.52,1.51-2.99Z"/>
      <path d="M497,317c-3.54.53-5.58-2.16-1.51-2.99,1.07.91,1.83,1.51,1.51,2.99Z"/>
      <path d="M154,400c.53,3.54-2.16,5.58-2.99,1.51.91-1.07,1.51-1.83,2.99-1.51Z"/>
      <path d="M379,313c1.59-1.59,4.58,1.41,2.99,2.99s-4.58-1.41-2.99-2.99Z"/>
      <path d="M165,104.01l2.5-.99c1.07.9,1.81,1.51,1.49,2.98h-3.99s0-1.99,0-1.99Z"/>
      <path d="M377,340c.32,1.48-.44,2.08-1.51,2.99-4.07-.84-2.03-3.52,1.51-2.99Z"/>
      <path d="M303,397c-3.54.53-5.58-2.16-1.51-2.99,1.07.91,1.83,1.51,1.51,2.99Z"/>
      <path d="M161,471c3.54-.53,5.58,2.16,1.51,2.99-1.07-.91-1.83-1.51-1.51-2.99Z"/>
      <path d="M613,266c.32,1.48-.44,2.08-1.51,2.99-4.07-.84-2.03-3.52,1.51-2.99Z"/>
      <polygon points="157 86 158.99 86 160 90 158.01 90 157 86"/>
      <path d="M600,178c1.31-1.34,6.13,4.08,0,2.99v-2.99Z"/>
      <path d="M169,231.01c-.61,2.29-3.04,2.1-5,1.98.61-2.29,3.04-2.1,5-1.98Z"/>
      <path d="M157,251.01c-.61,2.29-3.04,2.1-5,1.98.61-2.29,3.04-2.1,5-1.98Z"/>
      <path d="M357,356h2.99c1.33,1.33-4.08,6.12-2.99,0Z"/>
      <path d="M150,189h2.99s0,2.99,0,2.99c-1.83.31-3.28-1.04-2.99-2.99Z"/>
      <path d="M358,351v2.99s-2.99,0-2.99,0c-.29-1.95,1.17-3.3,2.99-2.99Z"/>
      <path d="M178.02,257.5c.03-1.79,4-1.68,3.97,0-.03,1.79-4,1.68-3.97,0Z"/>
      <path d="M585,505h2.99s0,2.99,0,2.99c-1.95.29-3.3-1.17-2.99-2.99Z"/>
      <path d="M624,175v2.99s-2.99,0-2.99,0c-.29-1.95,1.17-3.3,2.99-2.99Z"/>
      <path d="M135.99,442h-1.99c-.23-1.84-.05-2.91,1.5-3.98l1.48,1.48-.99,2.5Z"/>
      <path d="M628.01,275l1.99,1.51v.98c-.91,1.07-1.51,1.83-2.99,1.51l1.01-3.99Z"/>
      <path d="M190,258v2.99s-2.99,0-2.99,0c-.31-1.83,1.04-3.28,2.99-2.99Z"/>
      <polygon points="345.99 237.01 346 237.99 342.49 238.98 341.02 237.5 342.52 236 345.99 237.01"/>
      <path d="M189,471h2.99s0,2.99,0,2.99c-1.95.29-3.3-1.17-2.99-2.99Z"/>
      <path d="M502,263h2.99c1.33,1.33-4.08,6.12-2.99,0Z"/>
      <path d="M204,447h2.99s0,2.99,0,2.99c-1.95.29-3.3-1.17-2.99-2.99Z"/>
      <path d="M205,341h2.99s0,2.99,0,2.99c-1.95.29-3.3-1.17-2.99-2.99Z"/>
      <path d="M385,92.49c-.48-2.1,2.51-3.13,2.99-.98s-2.51,3.13-2.99.98Z"/>
      <path d="M628,482.49c-.48-2.1,2.51-3.13,2.99-.98s-2.51,3.13-2.99.98Z"/>
      <path d="M572,560.49c-.48-2.1,2.51-3.13,2.99-.98s-2.51,3.13-2.99.98Z"/>
      <path d="M227,172h2.99s0,2.99,0,2.99c-1.83.31-3.28-1.04-2.99-2.99Z"/>
      <path d="M391,268v2.99s-2.99,0-2.99,0c-.29-1.95,1.17-3.3,2.99-2.99Z"/>
      <rect x="238" y="283" width="1.99" height="3.99"/>
      <path d="M328,456c1.31-1.34,6.13,4.08,0,2.99v-2.99Z"/>
      <path d="M238,97c1.33-1.33,6.12,4.09,0,2.99v-2.99Z"/>
      <path d="M324,340h2.99s0,2.99,0,2.99c-1.95.29-3.3-1.17-2.99-2.99Z"/>
      <rect x="652" y="277" width="3.99" height="1.99"/>
      <rect x="554" y="187" width="3.99" height="1.99"/>
      <path d="M461,504h2.99c1.33,1.33-4.08,6.12-2.99,0Z"/>
      <path d="M522,134.01c-.61,2.29-3.04,2.1-5,1.98.61-2.29,3.04-2.1,5-1.98Z"/>
      <path d="M310.99,38c1.2,3.91-4.11,5.34-2.99,2.51.24-.62,2.12-2.28,2.99-2.51Z"/>
      <path d="M61,357c1.31-1.34,6.13,4.08,0,2.99v-2.99Z"/>
      <path d="M58,126h2.99s0,2.99,0,2.99c-1.83.31-3.28-1.04-2.99-2.99Z"/>
      <path d="M47,415.01c-.23.87-1.89,2.74-2.51,2.99-2.83,1.12-1.4-4.19,2.51-2.99Z"/>
      <path d="M39,193h2.99s0,2.99,0,2.99c-1.83.31-3.28-1.04-2.99-2.99Z"/>
      <path d="M750.02,492.5c.03-1.79,4-1.68,3.97,0-.03,1.79-4,1.68-3.97,0Z"/>
      <path d="M533,130.01c-.61,2.29-3.04,2.1-5,1.98.61-2.29,3.04-2.1,5-1.98Z"/>
      <path d="M294,248c1.31-1.34,6.13,4.08,0,2.99v-2.99Z"/>
      <path d="M299,540h-2.99c.02-3.67,2.97-3.67,2.99,0Z"/>
      <path d="M492,402h-2.99c.02-3.67,2.97-3.67,2.99,0Z"/>
      <path d="M430,299h2.99c-.02,3.67-2.97,3.67-2.99,0Z"/>
      <path d="M40,328.01l-2.5,2.98-1.48-1.48c1.07-1.55,2.14-1.73,3.98-1.49Z"/>
      <path d="M529,265h2.99c-.02,3.67-2.97,3.67-2.99,0Z"/>
      <path d="M306,410h-2.99c.02-3.67,2.97-3.67,2.99,0Z"/>
      <path d="M423.01,256h1.98c.84.84-1.66,3.78-2.99,4l1-4Z"/>
      <path d="M308,353c3.67.02,3.67,2.97,0,2.99v-2.99Z"/>
      <path d="M51,410h-2.99c.02-3.67,2.97-3.67,2.99,0Z"/>
      <path d="M53,290h-2.99c.02-3.67,2.97-3.67,2.99,0Z"/>
      <path d="M285,199c.29,1.95-1.17,3.3-2.99,2.99-.29-1.95,1.17-3.3,2.99-2.99Z"/>
      <path d="M280,248v2.99c-3.67-.02-3.67-2.97,0-2.99Z"/>
      <path d="M549,299h2.99c-.02,3.67-2.97,3.67-2.99,0Z"/>
      <path d="M275,214l3.99.49c-1.08,1.54-2.14,1.74-3.99,1.5v-1.99Z"/>
      <path d="M69,352v2.99c-3.67-.02-3.67-2.97,0-2.99Z"/>
      <path d="M316,310c3.67.02,3.67,2.97,0,2.99v-2.99Z"/>
      <path d="M77,388h-2.99c.02-3.67,2.97-3.67,2.99,0Z"/>
      <path d="M77,380c3.67.02,3.67,2.97,0,2.99v-2.99Z"/>
      <path d="M260,290v2.99c-3.67-.02-3.67-2.97,0-2.99Z"/>
      <path d="M400,394c3.67.02,3.67,2.97,0,2.99v-2.99Z"/>
      <path d="M100,432h-2.99c.02-3.67,2.97-3.67,2.99,0Z"/>
      <path d="M389,176c3.67.02,3.67,2.97,0,2.99v-2.99Z"/>
      <path d="M237.99,42v4s-1.99,0-1.99,0c-.27-1.78,0-3.5,1.99-4Z"/>
      <path d="M561,347h2.99c-.02,3.67-2.97,3.67-2.99,0Z"/>
      <path d="M652,168v2.99c-3.67-.02-3.67-2.97,0-2.99Z"/>
      <path d="M111,175h2.99c-.02,3.67-2.97,3.67-2.99,0Z"/>
      <polygon points="632 539 635 539 635 540.99 632.01 542 632 539"/>
      <path d="M124,117h-2.99c.02-3.67,2.97-3.67,2.99,0Z"/>
      <path d="M627,269h2.99c-.02,3.67-2.97,3.67-2.99,0Z"/>
      <path d="M566,551c1.95-.29,3.3,1.17,2.99,2.99-1.95.29-3.3-1.17-2.99-2.99Z"/>
      <path d="M334,468h-2.99c.02-3.67,2.97-3.67,2.99,0Z"/>
      <path d="M331,267h2.99c-.02,3.67-2.97,3.67-2.99,0Z"/>
      <path d="M225,255v2.99c-3.67-.02-3.67-2.97,0-2.99Z"/>
      <path d="M385,316c3.67.02,3.67,2.97,0,2.99v-2.99Z"/>
      <path d="M222,259v2.99c-3.67-.02-3.67-2.97,0-2.99Z"/>
      <path d="M130.01,453c.09-.79-.22-1.89,0-2.49,1.12-3.05,5.19.24,0,2.49Z"/>
      <path d="M137,221v2.99c-3.67-.02-3.67-2.97,0-2.99Z"/>
      <path d="M143,136h2.99c-.02,3.67-2.97,3.67-2.99,0Z"/>
      <path d="M503,447c3.67.02,3.67,2.97,0,2.99v-2.99Z"/>
      <path d="M339,131c.29,1.95-1.17,3.3-2.99,2.99-.29-1.95,1.17-3.3,2.99-2.99Z"/>
      <path d="M485,473c3.67.02,3.67,2.97,0,2.99v-2.99Z"/>
      <path d="M204,441h-2.99c.02-3.67,2.97-3.67,2.99,0Z"/>
      <path d="M612,279h-2.99c.02-3.67,2.97-3.67,2.99,0Z"/>
      <path d="M607.99,416v4s-1.99,0-1.99,0c-.27-1.78,0-3.5,1.99-4Z"/>
      <path d="M367.99,109c.25,1.99-1.85,4.2-3.99,3.99l3.99-3.99Z"/>
      <path d="M192,179c1.83-.31,3.28,1.04,2.99,2.99-1.83.31-3.28-1.04-2.99-2.99Z"/>
      <path d="M504,567h-2.99c.02-3.67,2.97-3.67,2.99,0Z"/>
      <path d="M440,305v2.99c-3.67-.02-3.67-2.97,0-2.99Z"/>
      <path d="M172,357c3.67.02,3.67,2.97,0,2.99v-2.99Z"/>
      <path d="M183,125c3.67.02,3.67,2.97,0,2.99v-2.99Z"/>
      <path d="M588,271c3.67.02,3.67,2.97,0,2.99v-2.99Z"/>
      <rect x="184" y="33" width="1.99" height="2.99"/>
      <rect x="184" y="278" width="2.99" height="1.99"/>
      <path d="M436,157c.59.59-.86,2.98-1.5,2.98-2.76,0-.02-4.5,1.5-2.98Z"/>
      <path d="M183,524c-.59-.59.86-2.98,1.5-2.98,2.76,0,.02,4.5-1.5,2.98Z"/>
      <rect x="31" y="193" width="2.99" height="1.99"/>
      <path d="M179.01,188.01h.98c.36,2.38-.48,4.27-2.99,3.99l2.01-3.99Z"/>
      <path d="M180,266c.59.59-.86,2.98-1.5,2.98-2.76,0-.02-4.5,1.5-2.98Z"/>
      <rect x="428" y="481" width="2.99" height="1.99"/>
      <path d="M351,420c-.59.59-2.98-.86-2.98-1.5,0-2.76,4.5-.02,2.98,1.5Z"/>
      <rect x="342" y="421" width="1.99" height="2.99"/>
      <path d="M431,114.01c-.53,1.99-2.13,2.25-4,1.98.53-1.99,2.13-2.25,4-1.98Z"/>
      <path d="M290,81c.59.59-.86,2.98-1.5,2.98-2.76,0-.02-4.5,1.5-2.98Z"/>
      <rect x="706" y="398" width="2.99" height="1.99"/>
      <rect x="162" y="97" width="1.99" height="2.99"/>
      <path d="M200,483c-.59.59-2.98-.86-2.98-1.5,0-2.76,4.5-.02,2.98,1.5Z"/>
      <rect x="578" y="300" width="2.99" height="1.99"/>
      <path d="M162,149c.59.59-.86,2.98-1.5,2.98-2.76,0-.02-4.5,1.5-2.98Z"/>
      <rect x="197" y="459" width="1.99" height="2.99"/>
      <rect x="296" y="528" width="1.99" height="2.99"/>
      <path d="M45,227c.59-.59,2.98.86,2.98,1.5,0,2.76-4.5.02-2.98-1.5Z"/>
      <path d="M613,475c.59-.59,2.98.86,2.98,1.5,0,2.76-4.5.02-2.98-1.5Z"/>
      <path d="M580,503c-.59.59-2.98-.86-2.98-1.5,0-2.76,4.5-.02,2.98,1.5Z"/>
      <rect x="380" y="96" width="1.99" height="2.99"/>
      <rect x="214" y="386" width="2.99" height="1.99"/>
      <path d="M151,407c.59.59-.86,2.98-1.5,2.98-2.76,0-.02-4.5,1.5-2.98Z"/>
      <rect x="617" y="213" width="1.99" height="2.99"/>
      <rect x="383" y="231" width="1.99" height="2.99"/>
      <rect x="478" y="141" width="2.99" height="1.99"/>
      <path d="M52,125.99c-1.87.26-3.47,0-4-1.98,1.87-.26,3.47,0,4,1.98Z"/>
      <path d="M335,286c.59-.59,2.98.86,2.98,1.5,0,2.76-4.5.02-2.98-1.5Z"/>
      <rect x="284" y="304" width="1.99" height="2.99"/>
      <rect x="229" y="187" width="1.99" height="2.99"/>
      <path d="M698,396c.59.59-.86,2.98-1.5,2.98-2.76,0-.02-4.5,1.5-2.98Z"/>
      <path d="M415,356c-.59-.59.86-2.98,1.5-2.98,2.76,0,.02,4.5-1.5,2.98Z"/>
      <path d="M65,467c.59-.59,2.98.86,2.98,1.5,0,2.76-4.5.02-2.98-1.5Z"/>
      <rect x="230" y="490" width="1.99" height="2.99"/>
      <rect x="235" y="447" width="1.99" height="2.99"/>
      <path d="M522,162c-.59.59-2.98-.86-2.98-1.5,0-2.76,4.5-.02,2.98,1.5Z"/>
      <rect x="73" y="461" width="2.99" height="1.99"/>
      <rect x="114" y="109" width="2.99" height="1.99"/>
      <rect x="114" y="179" width="1.99" height="2.99"/>
      <rect x="113" y="215" width="1.99" height="2.99"/>
      <path d="M565,447c-.59.59-2.98-.86-2.98-1.5,0-2.76,4.5-.02,2.98,1.5Z"/>
      <rect x="271" y="120" width="1.99" height="2.99"/>
      <rect x="236" y="50" width="1.99" height="2.99"/>
      <rect x="101" y="347" width="2.99" height="1.99"/>
      <path d="M413,536c-.59-.59.86-2.98,1.5-2.98,2.76,0,.02,4.5-1.5,2.98Z"/>
      <rect x="321" y="301" width="1.99" height="2.99"/>
      <path d="M99,269c.59-.59,2.98.86,2.98,1.5,0,2.76-4.5.02-2.98-1.5Z"/>
      <path d="M324,245c.59-.59,2.98.86,2.98,1.5,0,2.76-4.5.02-2.98-1.5Z"/>
      <path d="M322,264c.59-.59,2.98.86,2.98,1.5,0,2.76-4.5.02-2.98-1.5Z"/>
      <path d="M401,254c.59-.59,2.98.86,2.98,1.5,0,2.76-4.5.02-2.98-1.5Z"/>
      <path d="M98,225c-.59.59-2.98-.86-2.98-1.5,0-2.76,4.5-.02,2.98,1.5Z"/>
      <rect x="79" y="452" width="1.99" height="2.99"/>
      <path d="M458,225l2.99.49c-.92,1.06-1.51,1.82-2.99,1.5v-1.99Z"/>
      <rect x="407.45" y="270.45" width="2.1" height="2.1" transform="translate(-72.33 368.37) rotate(-45)"/>
      <rect x="659.45" y="446.45" width="2.1" height="2.1" transform="translate(-122.97 598.11) rotate(-45)"/>
      <rect x="509.45" y="581.45" width="2.1" height="2.1" transform="translate(-262.37 531.59) rotate(-45)"/>
      <path d="M388,264c1.25-.65,3.48,1.6,3,1.99h-3s0-1.99,0-1.99Z"/>
      <path d="M682,390h1.99s0,3,0,3c-.39.49-2.64-1.75-1.99-3Z"/>
      <path d="M121,345h1.99c.32,1.48-.44,2.07-1.5,2.99l-.49-2.99Z"/>
      <path d="M637.99,542v3s-1.99,0-1.99,0c-.65-1.25,1.6-3.48,1.99-3Z"/>
      <path d="M65.01,313c.39-.49,2.64,1.75,1.99,3h-1.99s0-3,0-3Z"/>
      <path d="M476.99,535v3s-1.99,0-1.99,0c-.65-1.25,1.6-3.48,1.99-3Z"/>
      <rect x="126.45" y="328.45" width="2.1" height="2.1" transform="translate(-195.65 186.66) rotate(-45)"/>
      <path d="M385,170h1.99s0,3,0,3c-.39.49-2.64-1.75-1.99-3Z"/>
      <path d="M420,118l2.99.49c-.92,1.06-1.51,1.82-2.99,1.5v-1.99Z"/>
      <path d="M221.99,298v3s-1.99,0-1.99,0c-.65-1.25,1.6-3.48,1.99-3Z"/>
      <path d="M369,53v1.99s-3,0-3,0c-.49-.39,1.75-2.64,3-1.99Z"/>
      <path d="M490,74l2.99.49c-.92,1.06-1.51,1.82-2.99,1.5v-1.99Z"/>
      <path d="M362,388v1.99s-3,0-3,0c-.49-.39,1.75-2.64,3-1.99Z"/>
      <path d="M596.01,222c.39-.49,2.64,1.75,1.99,3h-1.99s0-3,0-3Z"/>
      <path d="M42,290c1.25-.65,3.48,1.6,3,1.99h-3s0-1.99,0-1.99Z"/>
      <path d="M176,158v1.99c-1.48.32-2.07-.44-2.99-1.5l2.99-.49Z"/>
      <path d="M293,524h1.99c.32,1.48-.44,2.07-1.5,2.99l-.49-2.99Z"/>
      <rect x="350.45" y="345.45" width="2.1" height="2.1" transform="translate(-142.06 350.04) rotate(-45)"/>
      <path d="M29,388l2.99.49c-.92,1.06-1.51,1.82-2.99,1.5v-1.99Z"/>
      <path d="M293.01,254c.39-.49,2.64,1.75,1.99,3h-1.99s0-3,0-3Z"/>
      <path d="M348,292c1.25-.65,3.48,1.6,3,1.99h-3s0-1.99,0-1.99Z"/>
      <path d="M282,414c1.66,6.49-6.27,6.19-4.99,1.5.45-1.65,3.54-1.68,4.99-1.5Z"/>
      <path d="M587.87,571.88h-4.73l-.96-3.23c2.8-5.25,8.55-1.66,5.69,3.23Z"/>
    </g>
  </g>
</svg>